<?xml version="1.0" encoding="UTF-8"?>
<svg width="320px" height="127.676762px" viewBox="0 0 320 127.676762" version="1.1" xmlns="http://www.w3.org/2000/svg" xmlns:xlink="http://www.w3.org/1999/xlink">
    <title>Group</title>
    <g id="Page-1" stroke="none" stroke-width="1" fill="none" fill-rule="evenodd">
        <g id="Group" transform="translate(0, 0)" fill="#000000" fill-rule="nonzero">
            <rect id="Rectangle" x="0" y="118.787831" width="62.2222" height="8.8889"></rect>
            <rect id="Rectangle" x="0" y="101.818031" width="62.2222" height="8.8889"></rect>
            <rect id="Rectangle" x="17.7777" y="84.8483309" width="26.6667" height="8.889"></rect>
            <rect id="Rectangle" x="17.7777" y="67.8787309" width="26.6667" height="8.8889"></rect>
            <rect id="Rectangle" x="17.7777" y="50.9089309" width="26.6667" height="8.8889"></rect>
            <rect id="Rectangle" x="17.7777" y="33.9393309" width="26.6667" height="8.8889"></rect>
            <rect id="Rectangle" x="0" y="16.9696309" width="62.2222" height="8.8889"></rect>
            <rect id="Rectangle" x="0" y="3.08866995e-05" width="62.2222" height="8.8889"></rect>
            <path d="M71.1112,110.706931 L165.9532,110.706931 C167.562318,107.929327 168.766476,104.936138 169.5292,101.818031 L71.1112,101.818031 L71.1112,110.706931 Z" id="Path"></path>
            <path d="M158.5286,67.8783309 L88.8886,67.8783309 L88.8886,76.7671309 L165.9433,76.7671309 C163.996755,73.4030155 161.489013,70.396716 158.5286,67.8783309 Z" id="Path"></path>
            <path d="M88.8889,50.9089309 L88.8889,59.7983309 L158.5289,59.7983309 C161.489401,57.279913 163.997241,54.2735828 165.9439,50.9094309 L88.8889,50.9089309 Z" id="Path"></path>
            <path d="M165.9532,16.9696309 L71.1112,16.9696309 L71.1112,25.8583309 L169.5292,25.8583309 C168.766423,22.7403039 167.562267,19.7471884 165.9532,16.9696309 Z" id="Path"></path>
            <path d="M136.5656,0 L71.1112,0 L71.1112,8.88883089 L159.4612,8.88883089 C153.21318,3.16096889 145.041804,-0.011419098 136.5656,0 Z" id="Path"></path>
            <rect id="Rectangle" x="88.8889" y="33.9393309" width="26.6667" height="8.8889"></rect>
            <path d="M140.6061,42.8283309 L169.3161,42.8283309 C170.103762,39.930979 170.503583,36.9419394 170.5051,33.9394309 L140.6061,33.9394309 L140.6061,42.8283309 Z" id="Path"></path>
            <rect id="Rectangle" x="88.8889" y="84.8483309" width="26.6667" height="8.889"></rect>
            <path d="M140.6061,84.8483309 L140.6061,93.7373309 L170.5051,93.7373309 C170.503597,90.7347885 170.103776,87.7457142 169.3161,84.8483309 L140.6061,84.8483309 Z" id="Path"></path>
            <path d="M71.1112,127.588331 L136.5656,127.676231 C145.044122,127.699651 153.219794,124.525636 159.4615,118.787431 L71.1112,118.787431 L71.1112,127.588331 Z" id="Path"></path>
            <polygon id="Path" points="248.875 127.676331 251.979 118.787331 245.799 118.787331"></polygon>
            <polygon id="Path" points="242.962 110.707331 254.816 110.707331 257.936 101.818331 239.842 101.818331"></polygon>
            <polygon id="Path" points="237.005 93.7373309 260.773 93.7373309 263.894 84.8483309 233.884 84.8483309"></polygon>
            <polygon id="Path" points="231.047 76.7673309 266.731 76.7673309 269.851 67.8783309 227.927 67.8783309"></polygon>
            <polygon id="Path" points="195.556 42.8283309 243.58 42.8283309 240.489 33.9393309 195.556 33.9393309"></polygon>
            <polygon id="Path" points="260.099 25.8583309 320 25.8583309 320 16.9693309 263.19 16.9693309"></polygon>
            <polygon id="Path" points="269.091 0.0003308867 266 8.88933089 320 8.88933089 320 0.0003308867"></polygon>
            <rect id="Rectangle" x="177.7779" y="118.787831" width="44.4445" height="8.8889"></rect>
            <rect id="Rectangle" x="177.7779" y="101.818031" width="44.4445" height="8.8889"></rect>
            <rect id="Rectangle" x="195.5556" y="84.8483309" width="26.6667" height="8.889"></rect>
            <rect id="Rectangle" x="195.5556" y="67.8787309" width="26.6667" height="8.8889"></rect>
            <polygon id="Path" points="302.222 33.9393309 257.289 33.9393309 254.198 42.8283309 302.222 42.8283309"></polygon>
            <polygon id="Path" points="275.556 59.7983309 302.222 59.7983309 302.222 50.9093309 275.556 50.9093309 275.556 50.9093309 251.387 50.9093309 248.889 58.0943309 246.39 50.9093309 222.222 50.9093309 195.556 50.9093309 195.556 59.7983309 222.222 59.7983309 222.222 51.6293309 225.09 59.7983309 272.688 59.7983309 275.556 51.6303309"></polygon>
            <rect id="Rectangle" x="275.5555" y="67.8787309" width="26.6667" height="8.8889"></rect>
            <rect id="Rectangle" x="275.5555" y="84.8483309" width="26.6667" height="8.889"></rect>
            <rect id="Rectangle" x="275.5555" y="101.818031" width="44.4445" height="8.8889"></rect>
            <rect id="Rectangle" x="275.5555" y="118.787831" width="44.4445" height="8.8889"></rect>
            <polygon id="Path" points="237.679 25.8583309 234.588 16.9693309 177.778 16.9693309 177.778 25.8583309"></polygon>
            <polygon id="Path" points="231.778 8.88933089 228.687 0.0003308867 177.778 0.0003308867 177.778 8.88933089"></polygon>
        </g>
    </g>
</svg>