<?xml version="1.0" encoding="utf-8"?>
<!-- Generator: Adobe Illustrator 25.0.1, SVG Export Plug-In . SVG Version: 6.00 Build 0)  -->
<svg version="1.1" id="Layer_1" xmlns="http://www.w3.org/2000/svg" xmlns:xlink="http://www.w3.org/1999/xlink" x="0px" y="0px"
	 viewBox="0 0 492.9 127.2" style="enable-background:new 0 0 492.9 127.2;" xml:space="preserve">
<style type="text/css">
	.st0{fill:#10CFC9;}
	.st1{fill:url(#SVGID_1_);}
	.st2{fill:url(#SVGID_2_);}
	.st3{fill:url(#SVGID_3_);}
	.st4{fill:url(#SVGID_4_);}
	.st5{fill:url(#SVGID_5_);}
	.st6{fill:url(#SVGID_6_);}
	.st7{fill:url(#SVGID_7_);}
	.st8{fill:url(#SVGID_8_);}
	.st9{fill:url(#SVGID_9_);}
	.st10{fill:url(#SVGID_10_);}
	.st11{fill:url(#SVGID_11_);}
	.st12{fill:url(#SVGID_12_);}
	.st13{fill:url(#SVGID_13_);}
	.st14{fill:url(#SVGID_14_);}
	.st15{fill:url(#SVGID_15_);}
	.st16{fill:url(#SVGID_16_);}
	.st17{fill:url(#SVGID_17_);}
	.st18{fill:url(#SVGID_18_);}
	.st19{fill:url(#SVGID_19_);}
	.st20{fill:url(#SVGID_20_);}
	.st21{fill:url(#SVGID_21_);}
	.st22{fill:url(#SVGID_22_);}
	.st23{fill:url(#SVGID_23_);}
	.st24{fill:url(#SVGID_24_);}
	.st25{fill:url(#SVGID_25_);}
	.st26{fill:url(#SVGID_26_);}
	.st27{fill:url(#SVGID_27_);}
	.st28{fill:url(#SVGID_28_);}
	.st29{fill:url(#SVGID_29_);}
	.st30{fill:url(#SVGID_30_);}
	.st31{fill:url(#SVGID_31_);}
	.st32{fill:url(#SVGID_32_);}
	.st33{fill:url(#SVGID_33_);}
	.st34{fill:url(#SVGID_34_);}
	.st35{fill:url(#SVGID_35_);}
	.st36{fill:url(#SVGID_36_);}
	.st37{fill:url(#SVGID_37_);}
	.st38{fill:url(#SVGID_38_);}
	.st39{fill:url(#SVGID_39_);}
	.st40{fill:url(#SVGID_40_);}
	.st41{fill:url(#SVGID_41_);}
	.st42{fill:url(#SVGID_42_);}
	.st43{fill:url(#SVGID_43_);}
	.st44{fill:url(#SVGID_44_);}
	.st45{fill:url(#SVGID_45_);}
	.st46{fill:url(#SVGID_46_);}
	.st47{fill:url(#SVGID_47_);}
	.st48{fill:url(#SVGID_48_);}
	.st49{fill:url(#SVGID_49_);}
	.st50{fill:url(#SVGID_50_);}
	.st51{fill:url(#SVGID_51_);}
	.st52{fill:url(#SVGID_52_);}
	.st53{fill:url(#SVGID_53_);}
	.st54{fill:url(#SVGID_54_);}
	.st55{fill:url(#SVGID_55_);}
	.st56{fill:url(#SVGID_56_);}
	.st57{fill:url(#SVGID_57_);}
	.st58{fill:url(#SVGID_58_);}
	.st59{fill:#000B8C;}
	.st60{font-family:'Raleway-SemiBold';}
	.st61{font-size:50px;}
</style>
<g>
	<path class="st0" d="M131,42.7c0-0.7,0.1-1.4,0.4-2.1c0.3-0.7,0.6-1.3,1.1-1.8c0.5-0.5,1.1-1,1.8-1.3c0.7-0.3,1.5-0.5,2.4-0.5
		c1,0,2,0.2,2.7,0.7c0.8,0.5,1.3,1.1,1.7,1.8l-1.7,1.2c-0.1-0.3-0.3-0.6-0.5-0.8c-0.2-0.2-0.4-0.4-0.7-0.5c-0.2-0.1-0.5-0.2-0.8-0.3
		c-0.3-0.1-0.5-0.1-0.8-0.1c-0.6,0-1,0.1-1.5,0.3c-0.4,0.2-0.8,0.5-1,0.9s-0.5,0.8-0.6,1.2c-0.1,0.5-0.2,0.9-0.2,1.4
		c0,0.5,0.1,1,0.2,1.4c0.2,0.5,0.4,0.9,0.7,1.2c0.3,0.4,0.6,0.6,1.1,0.8c0.4,0.2,0.9,0.3,1.4,0.3c0.3,0,0.5,0,0.8-0.1
		c0.3-0.1,0.5-0.2,0.8-0.3c0.2-0.1,0.5-0.3,0.7-0.5c0.2-0.2,0.4-0.5,0.5-0.8l1.8,1c-0.2,0.4-0.4,0.8-0.8,1.1
		c-0.3,0.3-0.7,0.6-1.1,0.8c-0.4,0.2-0.9,0.4-1.4,0.5c-0.5,0.1-1,0.2-1.4,0.2c-0.8,0-1.6-0.2-2.2-0.5c-0.7-0.3-1.3-0.8-1.7-1.3
		c-0.5-0.6-0.9-1.2-1.1-1.9C131.2,44.2,131,43.4,131,42.7z"/>
	<path class="st0" d="M150.6,37.1h2l4.3,11.4h-2.3l-1.1-2.8h-4l-1,2.8h-2.3L150.6,37.1z M153.2,44.1l-1.6-4.5l-1.6,4.5H153.2z"/>
	<path class="st0" d="M172.2,48.5v-7.5l-2.9,5.6h-1.2l-2.9-5.6v7.5h-2.2V37.1h2.4l3.4,6.5l3.4-6.5h2.4v11.4H172.2z"/>
	<path class="st0" d="M190.8,45.5c0,0.5-0.1,0.9-0.3,1.3c-0.2,0.4-0.5,0.7-0.8,0.9c-0.3,0.2-0.7,0.4-1.2,0.6
		c-0.4,0.1-0.9,0.2-1.4,0.2h-5.5V37.1h6.1c0.4,0,0.8,0.1,1.1,0.3c0.3,0.2,0.6,0.4,0.8,0.7c0.2,0.3,0.4,0.6,0.5,0.9
		c0.1,0.3,0.2,0.7,0.2,1.1c0,0.6-0.1,1.1-0.4,1.6c-0.3,0.5-0.7,0.8-1.2,1.1c0.7,0.2,1.2,0.5,1.5,1C190.6,44.2,190.8,44.8,190.8,45.5
		z M183.8,39v2.9h2.9c0.4,0,0.7-0.1,1-0.4c0.3-0.3,0.4-0.6,0.4-1.1c0-0.4-0.1-0.8-0.4-1c-0.2-0.3-0.5-0.4-0.9-0.4H183.8z
		 M188.6,45.1c0-0.2,0-0.4-0.1-0.6c-0.1-0.2-0.2-0.4-0.3-0.5c-0.1-0.1-0.3-0.2-0.4-0.3c-0.2-0.1-0.3-0.1-0.5-0.1h-3.4v3h3.3
		c0.2,0,0.4,0,0.6-0.1c0.2-0.1,0.3-0.2,0.5-0.3c0.1-0.1,0.2-0.3,0.3-0.5C188.5,45.5,188.6,45.3,188.6,45.1z"/>
	<path class="st0" d="M197.3,48.5V37.1h5c0.5,0,1,0.1,1.5,0.3c0.4,0.2,0.8,0.5,1.1,0.9c0.3,0.4,0.6,0.8,0.8,1.2
		c0.2,0.5,0.3,0.9,0.3,1.4c0,0.7-0.2,1.4-0.6,2s-0.9,1-1.5,1.3l2.6,4.3H204l-2.3-3.8h-2.2v3.8H197.3z M199.5,42.7h2.8
		c0.2,0,0.4,0,0.6-0.1c0.2-0.1,0.3-0.2,0.5-0.4c0.1-0.2,0.2-0.4,0.3-0.6c0.1-0.2,0.1-0.5,0.1-0.7c0-0.3,0-0.5-0.1-0.7
		c-0.1-0.2-0.2-0.4-0.3-0.6c-0.1-0.2-0.3-0.3-0.5-0.4c-0.2-0.1-0.4-0.1-0.6-0.1h-2.7V42.7z"/>
	<path class="st0" d="M212.8,48.5V37.1h2.2v11.4H212.8z"/>
	<path class="st0" d="M222.2,48.5V37.1h4.1c0.9,0,1.7,0.1,2.4,0.4c0.7,0.3,1.3,0.7,1.8,1.2c0.5,0.5,0.8,1.1,1.1,1.8
		c0.2,0.7,0.4,1.4,0.4,2.2c0,0.9-0.1,1.6-0.4,2.3c-0.3,0.7-0.6,1.3-1.1,1.8c-0.5,0.5-1.1,0.9-1.8,1.2c-0.7,0.3-1.5,0.4-2.3,0.4
		H222.2z M229.7,42.8c0-0.5-0.1-1-0.2-1.5c-0.1-0.5-0.4-0.9-0.7-1.2c-0.3-0.3-0.6-0.6-1.1-0.8c-0.4-0.2-0.9-0.3-1.4-0.3h-1.9v7.5
		h1.9c0.5,0,1-0.1,1.5-0.3c0.4-0.2,0.8-0.5,1.1-0.8c0.3-0.3,0.5-0.7,0.6-1.2C229.6,43.8,229.7,43.3,229.7,42.8z"/>
	<path class="st0" d="M246.4,47.2c-0.9,0.9-2,1.4-3.2,1.4c-0.7,0-1.5-0.1-2.1-0.4c-0.7-0.3-1.2-0.7-1.7-1.2
		c-0.5-0.5-0.9-1.1-1.2-1.9c-0.3-0.7-0.4-1.5-0.4-2.3c0-0.8,0.1-1.5,0.4-2.2c0.3-0.7,0.7-1.3,1.2-1.8c0.5-0.5,1.1-0.9,1.8-1.2
		c0.7-0.3,1.4-0.5,2.2-0.5c1.1,0,2,0.2,2.7,0.7c0.8,0.4,1.3,1.1,1.7,1.8l-1.7,1.2c-0.3-0.6-0.7-1-1.2-1.3c-0.5-0.3-1.1-0.4-1.7-0.4
		c-0.5,0-0.9,0.1-1.3,0.3c-0.4,0.2-0.7,0.5-1,0.8c-0.3,0.4-0.5,0.8-0.7,1.2c-0.2,0.5-0.2,0.9-0.2,1.5c0,0.5,0.1,1,0.3,1.5
		s0.4,0.9,0.7,1.2c0.3,0.3,0.7,0.6,1.1,0.8c0.4,0.2,0.9,0.3,1.3,0.3c1.1,0,2.1-0.5,3-1.6v-0.8h-2.3v-1.6h4.1v5.9h-1.8V47.2z"/>
	<path class="st0" d="M262.8,46.5v1.9h-7.9V37.1h7.8V39h-5.5v2.7h4.8v1.8h-4.8v3H262.8z"/>
</g>
<g>
	<linearGradient id="SVGID_1_" gradientUnits="userSpaceOnUse" x1="-1.2292" y1="138.5397" x2="104.0019" y2="65.5881">
		<stop  offset="0.392" style="stop-color:#10CFC9"/>
		<stop  offset="0.4605" style="stop-color:#0FCAC8"/>
		<stop  offset="0.5386" style="stop-color:#0EBCC4"/>
		<stop  offset="0.6215" style="stop-color:#0CA5BC"/>
		<stop  offset="0.7078" style="stop-color:#0A85B2"/>
		<stop  offset="0.7966" style="stop-color:#065CA5"/>
		<stop  offset="0.8863" style="stop-color:#022A96"/>
		<stop  offset="0.9366" style="stop-color:#000B8C"/>
	</linearGradient>
	<circle class="st1" cx="107.1" cy="63.4" r="2.6"/>
	<linearGradient id="SVGID_2_" gradientUnits="userSpaceOnUse" x1="-17.4511" y1="115.1401" x2="87.7801" y2="42.1884">
		<stop  offset="0.392" style="stop-color:#10CFC9"/>
		<stop  offset="0.4605" style="stop-color:#0FCAC8"/>
		<stop  offset="0.5386" style="stop-color:#0EBCC4"/>
		<stop  offset="0.6215" style="stop-color:#0CA5BC"/>
		<stop  offset="0.7078" style="stop-color:#0A85B2"/>
		<stop  offset="0.7966" style="stop-color:#065CA5"/>
		<stop  offset="0.8863" style="stop-color:#022A96"/>
		<stop  offset="0.9366" style="stop-color:#000B8C"/>
	</linearGradient>
	<path class="st2" d="M41.2,63.8c0-12.3,10-22.3,22.3-22.3V19.6c-24.4,0-44.2,19.8-44.2,44.2s19.8,44.2,44.2,44.2V86.1
		C51.2,86.1,41.2,76.1,41.2,63.8z"/>
	<linearGradient id="SVGID_3_" gradientUnits="userSpaceOnUse" x1="-1.067" y1="138.7738" x2="104.1642" y2="65.8222">
		<stop  offset="0.392" style="stop-color:#10CFC9"/>
		<stop  offset="0.4605" style="stop-color:#0FCAC8"/>
		<stop  offset="0.5386" style="stop-color:#0EBCC4"/>
		<stop  offset="0.6215" style="stop-color:#0CA5BC"/>
		<stop  offset="0.7078" style="stop-color:#0A85B2"/>
		<stop  offset="0.7966" style="stop-color:#065CA5"/>
		<stop  offset="0.8863" style="stop-color:#022A96"/>
		<stop  offset="0.9366" style="stop-color:#000B8C"/>
	</linearGradient>
	<circle class="st3" cx="101.6" cy="67.6" r="2.6"/>
	<linearGradient id="SVGID_4_" gradientUnits="userSpaceOnUse" x1="-5.8458" y1="131.8804" x2="99.3854" y2="58.9288">
		<stop  offset="0.392" style="stop-color:#10CFC9"/>
		<stop  offset="0.4605" style="stop-color:#0FCAC8"/>
		<stop  offset="0.5386" style="stop-color:#0EBCC4"/>
		<stop  offset="0.6215" style="stop-color:#0CA5BC"/>
		<stop  offset="0.7078" style="stop-color:#0A85B2"/>
		<stop  offset="0.7966" style="stop-color:#065CA5"/>
		<stop  offset="0.8863" style="stop-color:#022A96"/>
		<stop  offset="0.9366" style="stop-color:#000B8C"/>
	</linearGradient>
	<circle class="st4" cx="105.9" cy="54.4" r="2.6"/>
	<linearGradient id="SVGID_5_" gradientUnits="userSpaceOnUse" x1="-4.8413" y1="133.3293" x2="100.3898" y2="60.3777">
		<stop  offset="0.392" style="stop-color:#10CFC9"/>
		<stop  offset="0.4605" style="stop-color:#0FCAC8"/>
		<stop  offset="0.5386" style="stop-color:#0EBCC4"/>
		<stop  offset="0.6215" style="stop-color:#0CA5BC"/>
		<stop  offset="0.7078" style="stop-color:#0A85B2"/>
		<stop  offset="0.7966" style="stop-color:#065CA5"/>
		<stop  offset="0.8863" style="stop-color:#022A96"/>
		<stop  offset="0.9366" style="stop-color:#000B8C"/>
	</linearGradient>
	<circle class="st5" cx="101.6" cy="59.5" r="2.6"/>
	<linearGradient id="SVGID_6_" gradientUnits="userSpaceOnUse" x1="-7.5819" y1="129.3761" x2="97.6492" y2="56.4245">
		<stop  offset="0.392" style="stop-color:#10CFC9"/>
		<stop  offset="0.4605" style="stop-color:#0FCAC8"/>
		<stop  offset="0.5386" style="stop-color:#0EBCC4"/>
		<stop  offset="0.6215" style="stop-color:#0CA5BC"/>
		<stop  offset="0.7078" style="stop-color:#0A85B2"/>
		<stop  offset="0.7966" style="stop-color:#065CA5"/>
		<stop  offset="0.8863" style="stop-color:#022A96"/>
		<stop  offset="0.9366" style="stop-color:#000B8C"/>
	</linearGradient>
	<circle class="st6" cx="94.9" cy="58.3" r="2.6"/>
	<linearGradient id="SVGID_7_" gradientUnits="userSpaceOnUse" x1="-9.5389" y1="126.9185" x2="95.6922" y2="53.9668">
		<stop  offset="0.392" style="stop-color:#10CFC9"/>
		<stop  offset="0.4605" style="stop-color:#0FCAC8"/>
		<stop  offset="0.5386" style="stop-color:#0EBCC4"/>
		<stop  offset="0.6215" style="stop-color:#0CA5BC"/>
		<stop  offset="0.7078" style="stop-color:#0A85B2"/>
		<stop  offset="0.7966" style="stop-color:#065CA5"/>
		<stop  offset="0.8863" style="stop-color:#022A96"/>
		<stop  offset="0.9366" style="stop-color:#000B8C"/>
	</linearGradient>
	<circle class="st7" cx="98.4" cy="52.1" r="2.6"/>
	<linearGradient id="SVGID_8_" gradientUnits="userSpaceOnUse" x1="-5.9678" y1="131.7045" x2="99.2634" y2="58.7528">
		<stop  offset="0.392" style="stop-color:#10CFC9"/>
		<stop  offset="0.4605" style="stop-color:#0FCAC8"/>
		<stop  offset="0.5386" style="stop-color:#0EBCC4"/>
		<stop  offset="0.6215" style="stop-color:#0CA5BC"/>
		<stop  offset="0.7078" style="stop-color:#0A85B2"/>
		<stop  offset="0.7966" style="stop-color:#065CA5"/>
		<stop  offset="0.8863" style="stop-color:#022A96"/>
		<stop  offset="0.9366" style="stop-color:#000B8C"/>
	</linearGradient>
	<circle class="st8" cx="91.5" cy="64.1" r="2.6"/>
	<linearGradient id="SVGID_9_" gradientUnits="userSpaceOnUse" x1="-25.0891" y1="104.1223" x2="80.142" y2="31.1707">
		<stop  offset="0.392" style="stop-color:#10CFC9"/>
		<stop  offset="0.4605" style="stop-color:#0FCAC8"/>
		<stop  offset="0.5386" style="stop-color:#0EBCC4"/>
		<stop  offset="0.6215" style="stop-color:#0CA5BC"/>
		<stop  offset="0.7078" style="stop-color:#0A85B2"/>
		<stop  offset="0.7966" style="stop-color:#065CA5"/>
		<stop  offset="0.8863" style="stop-color:#022A96"/>
		<stop  offset="0.9366" style="stop-color:#000B8C"/>
	</linearGradient>
	<circle class="st9" cx="68.6" cy="39.2" r="2.6"/>
	<linearGradient id="SVGID_10_" gradientUnits="userSpaceOnUse" x1="-10.6972" y1="124.8824" x2="94.534" y2="51.9308">
		<stop  offset="0.392" style="stop-color:#10CFC9"/>
		<stop  offset="0.4605" style="stop-color:#0FCAC8"/>
		<stop  offset="0.5386" style="stop-color:#0EBCC4"/>
		<stop  offset="0.6215" style="stop-color:#0CA5BC"/>
		<stop  offset="0.7078" style="stop-color:#0A85B2"/>
		<stop  offset="0.7966" style="stop-color:#065CA5"/>
		<stop  offset="0.8863" style="stop-color:#022A96"/>
		<stop  offset="0.9366" style="stop-color:#000B8C"/>
	</linearGradient>
	<circle class="st10" cx="89" cy="55.8" r="2.6"/>
	<linearGradient id="SVGID_11_" gradientUnits="userSpaceOnUse" x1="-20.3571" y1="109.0632" x2="84.874" y2="36.1116">
		<stop  offset="0.392" style="stop-color:#10CFC9"/>
		<stop  offset="0.4605" style="stop-color:#0FCAC8"/>
		<stop  offset="0.5386" style="stop-color:#0EBCC4"/>
		<stop  offset="0.6215" style="stop-color:#0CA5BC"/>
		<stop  offset="0.7078" style="stop-color:#0A85B2"/>
		<stop  offset="0.7966" style="stop-color:#065CA5"/>
		<stop  offset="0.8863" style="stop-color:#022A96"/>
		<stop  offset="0.9366" style="stop-color:#000B8C"/>
	</linearGradient>
	<circle class="st11" cx="93" cy="30.5" r="2.6"/>
	<linearGradient id="SVGID_12_" gradientUnits="userSpaceOnUse" x1="-15.5541" y1="117.8764" x2="89.6771" y2="44.9248">
		<stop  offset="0.392" style="stop-color:#10CFC9"/>
		<stop  offset="0.4605" style="stop-color:#0FCAC8"/>
		<stop  offset="0.5386" style="stop-color:#0EBCC4"/>
		<stop  offset="0.6215" style="stop-color:#0CA5BC"/>
		<stop  offset="0.7078" style="stop-color:#0A85B2"/>
		<stop  offset="0.7966" style="stop-color:#065CA5"/>
		<stop  offset="0.8863" style="stop-color:#022A96"/>
		<stop  offset="0.9366" style="stop-color:#000B8C"/>
	</linearGradient>
	<circle class="st12" cx="84.1" cy="48.8" r="2.6"/>
	<linearGradient id="SVGID_13_" gradientUnits="userSpaceOnUse" x1="-11.91" y1="121.3662" x2="93.3211" y2="48.4146">
		<stop  offset="0.392" style="stop-color:#10CFC9"/>
		<stop  offset="0.4605" style="stop-color:#0FCAC8"/>
		<stop  offset="0.5386" style="stop-color:#0EBCC4"/>
		<stop  offset="0.6215" style="stop-color:#0CA5BC"/>
		<stop  offset="0.7078" style="stop-color:#0A85B2"/>
		<stop  offset="0.7966" style="stop-color:#065CA5"/>
		<stop  offset="0.8863" style="stop-color:#022A96"/>
		<stop  offset="0.9366" style="stop-color:#000B8C"/>
	</linearGradient>
	<circle class="st13" cx="97.5" cy="45.5" r="2.6"/>
	<linearGradient id="SVGID_14_" gradientUnits="userSpaceOnUse" x1="-20.7023" y1="110.4503" x2="84.5289" y2="37.4987">
		<stop  offset="0.392" style="stop-color:#10CFC9"/>
		<stop  offset="0.4605" style="stop-color:#0FCAC8"/>
		<stop  offset="0.5386" style="stop-color:#0EBCC4"/>
		<stop  offset="0.6215" style="stop-color:#0CA5BC"/>
		<stop  offset="0.7078" style="stop-color:#0A85B2"/>
		<stop  offset="0.7966" style="stop-color:#065CA5"/>
		<stop  offset="0.8863" style="stop-color:#022A96"/>
		<stop  offset="0.9366" style="stop-color:#000B8C"/>
	</linearGradient>
	<circle class="st14" cx="76.9" cy="42.8" r="2.6"/>
	<linearGradient id="SVGID_15_" gradientUnits="userSpaceOnUse" x1="-12.1894" y1="120.1749" x2="93.0417" y2="47.2232">
		<stop  offset="0.392" style="stop-color:#10CFC9"/>
		<stop  offset="0.4605" style="stop-color:#0FCAC8"/>
		<stop  offset="0.5386" style="stop-color:#0EBCC4"/>
		<stop  offset="0.6215" style="stop-color:#0CA5BC"/>
		<stop  offset="0.7078" style="stop-color:#0A85B2"/>
		<stop  offset="0.7966" style="stop-color:#065CA5"/>
		<stop  offset="0.8863" style="stop-color:#022A96"/>
		<stop  offset="0.9366" style="stop-color:#000B8C"/>
	</linearGradient>
	<circle class="st15" cx="102" cy="41" r="2.6"/>
	<linearGradient id="SVGID_16_" gradientUnits="userSpaceOnUse" x1="-12.5592" y1="121.8648" x2="92.6719" y2="48.9132">
		<stop  offset="0.392" style="stop-color:#10CFC9"/>
		<stop  offset="0.4605" style="stop-color:#0FCAC8"/>
		<stop  offset="0.5386" style="stop-color:#0EBCC4"/>
		<stop  offset="0.6215" style="stop-color:#0CA5BC"/>
		<stop  offset="0.7078" style="stop-color:#0A85B2"/>
		<stop  offset="0.7966" style="stop-color:#065CA5"/>
		<stop  offset="0.8863" style="stop-color:#022A96"/>
		<stop  offset="0.9366" style="stop-color:#000B8C"/>
	</linearGradient>
	<circle class="st16" cx="91.8" cy="49.5" r="2.6"/>
	<linearGradient id="SVGID_17_" gradientUnits="userSpaceOnUse" x1="-16.8238" y1="116.0449" x2="88.4073" y2="43.0932">
		<stop  offset="0.392" style="stop-color:#10CFC9"/>
		<stop  offset="0.4605" style="stop-color:#0FCAC8"/>
		<stop  offset="0.5386" style="stop-color:#0EBCC4"/>
		<stop  offset="0.6215" style="stop-color:#0CA5BC"/>
		<stop  offset="0.7078" style="stop-color:#0A85B2"/>
		<stop  offset="0.7966" style="stop-color:#065CA5"/>
		<stop  offset="0.8863" style="stop-color:#022A96"/>
		<stop  offset="0.9366" style="stop-color:#000B8C"/>
	</linearGradient>
	<circle class="st17" cx="95.1" cy="38.5" r="2.6"/>
	<linearGradient id="SVGID_18_" gradientUnits="userSpaceOnUse" x1="-29.363" y1="97.9574" x2="75.8681" y2="25.0057">
		<stop  offset="0.392" style="stop-color:#10CFC9"/>
		<stop  offset="0.4605" style="stop-color:#0FCAC8"/>
		<stop  offset="0.5386" style="stop-color:#0EBCC4"/>
		<stop  offset="0.6215" style="stop-color:#0CA5BC"/>
		<stop  offset="0.7078" style="stop-color:#0A85B2"/>
		<stop  offset="0.7966" style="stop-color:#065CA5"/>
		<stop  offset="0.8863" style="stop-color:#022A96"/>
		<stop  offset="0.9366" style="stop-color:#000B8C"/>
	</linearGradient>
	<circle class="st18" cx="79" cy="22.8" r="2.6"/>
	<linearGradient id="SVGID_19_" gradientUnits="userSpaceOnUse" x1="-9.369" y1="126.7982" x2="95.8621" y2="53.8466">
		<stop  offset="0.392" style="stop-color:#10CFC9"/>
		<stop  offset="0.4605" style="stop-color:#0FCAC8"/>
		<stop  offset="0.5386" style="stop-color:#0EBCC4"/>
		<stop  offset="0.6215" style="stop-color:#0CA5BC"/>
		<stop  offset="0.7078" style="stop-color:#0A85B2"/>
		<stop  offset="0.7966" style="stop-color:#065CA5"/>
		<stop  offset="0.8863" style="stop-color:#022A96"/>
		<stop  offset="0.9366" style="stop-color:#000B8C"/>
	</linearGradient>
	<circle class="st19" cx="104.1" cy="48.1" r="2.6"/>
	<linearGradient id="SVGID_20_" gradientUnits="userSpaceOnUse" x1="-15.9216" y1="117.3463" x2="89.3095" y2="44.3946">
		<stop  offset="0.392" style="stop-color:#10CFC9"/>
		<stop  offset="0.4605" style="stop-color:#0FCAC8"/>
		<stop  offset="0.5386" style="stop-color:#0EBCC4"/>
		<stop  offset="0.6215" style="stop-color:#0CA5BC"/>
		<stop  offset="0.7078" style="stop-color:#0A85B2"/>
		<stop  offset="0.7966" style="stop-color:#065CA5"/>
		<stop  offset="0.8863" style="stop-color:#022A96"/>
		<stop  offset="0.9366" style="stop-color:#000B8C"/>
	</linearGradient>
	<circle class="st20" cx="90.9" cy="43.3" r="2.6"/>
	<linearGradient id="SVGID_21_" gradientUnits="userSpaceOnUse" x1="-20.2083" y1="111.1629" x2="85.0229" y2="38.2112">
		<stop  offset="0.392" style="stop-color:#10CFC9"/>
		<stop  offset="0.4605" style="stop-color:#0FCAC8"/>
		<stop  offset="0.5386" style="stop-color:#0EBCC4"/>
		<stop  offset="0.6215" style="stop-color:#0CA5BC"/>
		<stop  offset="0.7078" style="stop-color:#0A85B2"/>
		<stop  offset="0.7966" style="stop-color:#065CA5"/>
		<stop  offset="0.8863" style="stop-color:#022A96"/>
		<stop  offset="0.9366" style="stop-color:#000B8C"/>
	</linearGradient>
	<circle class="st21" cx="88.4" cy="35.9" r="2.6"/>
	<linearGradient id="SVGID_22_" gradientUnits="userSpaceOnUse" x1="-18.8488" y1="113.1239" x2="86.3824" y2="40.1722">
		<stop  offset="0.392" style="stop-color:#10CFC9"/>
		<stop  offset="0.4605" style="stop-color:#0FCAC8"/>
		<stop  offset="0.5386" style="stop-color:#0EBCC4"/>
		<stop  offset="0.6215" style="stop-color:#0CA5BC"/>
		<stop  offset="0.7078" style="stop-color:#0A85B2"/>
		<stop  offset="0.7966" style="stop-color:#065CA5"/>
		<stop  offset="0.8863" style="stop-color:#022A96"/>
		<stop  offset="0.9366" style="stop-color:#000B8C"/>
	</linearGradient>
	<circle class="st22" cx="84.1" cy="41.8" r="2.6"/>
	<linearGradient id="SVGID_23_" gradientUnits="userSpaceOnUse" x1="-23.2552" y1="106.7678" x2="81.976" y2="33.8161">
		<stop  offset="0.392" style="stop-color:#10CFC9"/>
		<stop  offset="0.4605" style="stop-color:#0FCAC8"/>
		<stop  offset="0.5386" style="stop-color:#0EBCC4"/>
		<stop  offset="0.6215" style="stop-color:#0CA5BC"/>
		<stop  offset="0.7078" style="stop-color:#0A85B2"/>
		<stop  offset="0.7966" style="stop-color:#065CA5"/>
		<stop  offset="0.8863" style="stop-color:#022A96"/>
		<stop  offset="0.9366" style="stop-color:#000B8C"/>
	</linearGradient>
	<circle class="st23" cx="81.6" cy="34.1" r="2.6"/>
	<linearGradient id="SVGID_24_" gradientUnits="userSpaceOnUse" x1="-24.9656" y1="104.3005" x2="80.2655" y2="31.3488">
		<stop  offset="0.392" style="stop-color:#10CFC9"/>
		<stop  offset="0.4605" style="stop-color:#0FCAC8"/>
		<stop  offset="0.5386" style="stop-color:#0EBCC4"/>
		<stop  offset="0.6215" style="stop-color:#0CA5BC"/>
		<stop  offset="0.7078" style="stop-color:#0A85B2"/>
		<stop  offset="0.7966" style="stop-color:#065CA5"/>
		<stop  offset="0.8863" style="stop-color:#022A96"/>
		<stop  offset="0.9366" style="stop-color:#000B8C"/>
	</linearGradient>
	<circle class="st24" cx="85.2" cy="27.9" r="2.6"/>
	<linearGradient id="SVGID_25_" gradientUnits="userSpaceOnUse" x1="-27.4649" y1="100.6953" x2="77.7662" y2="27.7437">
		<stop  offset="0.392" style="stop-color:#10CFC9"/>
		<stop  offset="0.4605" style="stop-color:#0FCAC8"/>
		<stop  offset="0.5386" style="stop-color:#0EBCC4"/>
		<stop  offset="0.6215" style="stop-color:#0CA5BC"/>
		<stop  offset="0.7078" style="stop-color:#0A85B2"/>
		<stop  offset="0.7966" style="stop-color:#065CA5"/>
		<stop  offset="0.8863" style="stop-color:#022A96"/>
		<stop  offset="0.9366" style="stop-color:#000B8C"/>
	</linearGradient>
	<circle class="st25" cx="76" cy="29" r="2.6"/>
	<linearGradient id="SVGID_26_" gradientUnits="userSpaceOnUse" x1="-32.4437" y1="90.9568" x2="72.7875" y2="18.0052">
		<stop  offset="0.392" style="stop-color:#10CFC9"/>
		<stop  offset="0.4605" style="stop-color:#0FCAC8"/>
		<stop  offset="0.5386" style="stop-color:#0EBCC4"/>
		<stop  offset="0.6215" style="stop-color:#0CA5BC"/>
		<stop  offset="0.7078" style="stop-color:#0A85B2"/>
		<stop  offset="0.7966" style="stop-color:#065CA5"/>
		<stop  offset="0.8863" style="stop-color:#022A96"/>
		<stop  offset="0.9366" style="stop-color:#000B8C"/>
	</linearGradient>
	<circle class="st26" cx="69.5" cy="20.3" r="2.6"/>
	<linearGradient id="SVGID_27_" gradientUnits="userSpaceOnUse" x1="-24.7678" y1="104.5859" x2="80.4634" y2="31.6343">
		<stop  offset="0.392" style="stop-color:#10CFC9"/>
		<stop  offset="0.4605" style="stop-color:#0FCAC8"/>
		<stop  offset="0.5386" style="stop-color:#0EBCC4"/>
		<stop  offset="0.6215" style="stop-color:#0CA5BC"/>
		<stop  offset="0.7078" style="stop-color:#0A85B2"/>
		<stop  offset="0.7966" style="stop-color:#065CA5"/>
		<stop  offset="0.8863" style="stop-color:#022A96"/>
		<stop  offset="0.9366" style="stop-color:#000B8C"/>
	</linearGradient>
	<circle class="st27" cx="74.3" cy="35.9" r="2.6"/>
	<linearGradient id="SVGID_28_" gradientUnits="userSpaceOnUse" x1="-28.4658" y1="98.2063" x2="76.7653" y2="25.2546">
		<stop  offset="0.392" style="stop-color:#10CFC9"/>
		<stop  offset="0.4605" style="stop-color:#0FCAC8"/>
		<stop  offset="0.5386" style="stop-color:#0EBCC4"/>
		<stop  offset="0.6215" style="stop-color:#0CA5BC"/>
		<stop  offset="0.7078" style="stop-color:#0A85B2"/>
		<stop  offset="0.7966" style="stop-color:#065CA5"/>
		<stop  offset="0.8863" style="stop-color:#022A96"/>
		<stop  offset="0.9366" style="stop-color:#000B8C"/>
	</linearGradient>
	<circle class="st28" cx="69.2" cy="30.5" r="2.6"/>
	<linearGradient id="SVGID_29_" gradientUnits="userSpaceOnUse" x1="3.343" y1="145.135" x2="108.5741" y2="72.1834">
		<stop  offset="0.392" style="stop-color:#10CFC9"/>
		<stop  offset="0.4605" style="stop-color:#0FCAC8"/>
		<stop  offset="0.5386" style="stop-color:#0EBCC4"/>
		<stop  offset="0.6215" style="stop-color:#0CA5BC"/>
		<stop  offset="0.7078" style="stop-color:#0A85B2"/>
		<stop  offset="0.7966" style="stop-color:#065CA5"/>
		<stop  offset="0.8863" style="stop-color:#022A96"/>
		<stop  offset="0.9366" style="stop-color:#000B8C"/>
	</linearGradient>
	<circle class="st29" cx="105.9" cy="74.1" r="2.6"/>
	<linearGradient id="SVGID_30_" gradientUnits="userSpaceOnUse" x1="-1.6522" y1="136.8942" x2="103.579" y2="63.9426">
		<stop  offset="0.392" style="stop-color:#10CFC9"/>
		<stop  offset="0.4605" style="stop-color:#0FCAC8"/>
		<stop  offset="0.5386" style="stop-color:#0EBCC4"/>
		<stop  offset="0.6215" style="stop-color:#0CA5BC"/>
		<stop  offset="0.7078" style="stop-color:#0A85B2"/>
		<stop  offset="0.7966" style="stop-color:#065CA5"/>
		<stop  offset="0.8863" style="stop-color:#022A96"/>
		<stop  offset="0.9366" style="stop-color:#000B8C"/>
	</linearGradient>
	<circle class="st30" cx="95.3" cy="69.7" r="2.6"/>
	<linearGradient id="SVGID_31_" gradientUnits="userSpaceOnUse" x1="1.8291" y1="142.9512" x2="107.0602" y2="69.9996">
		<stop  offset="0.392" style="stop-color:#10CFC9"/>
		<stop  offset="0.4605" style="stop-color:#0FCAC8"/>
		<stop  offset="0.5386" style="stop-color:#0EBCC4"/>
		<stop  offset="0.6215" style="stop-color:#0CA5BC"/>
		<stop  offset="0.7078" style="stop-color:#0A85B2"/>
		<stop  offset="0.7966" style="stop-color:#065CA5"/>
		<stop  offset="0.8863" style="stop-color:#022A96"/>
		<stop  offset="0.9366" style="stop-color:#000B8C"/>
	</linearGradient>
	<circle class="st31" cx="99.4" cy="75.3" r="2.6"/>
	<linearGradient id="SVGID_32_" gradientUnits="userSpaceOnUse" x1="-1.6128" y1="137.9865" x2="103.6184" y2="65.0348">
		<stop  offset="0.392" style="stop-color:#10CFC9"/>
		<stop  offset="0.4605" style="stop-color:#0FCAC8"/>
		<stop  offset="0.5386" style="stop-color:#0EBCC4"/>
		<stop  offset="0.6215" style="stop-color:#0CA5BC"/>
		<stop  offset="0.7078" style="stop-color:#0A85B2"/>
		<stop  offset="0.7966" style="stop-color:#065CA5"/>
		<stop  offset="0.8863" style="stop-color:#022A96"/>
		<stop  offset="0.9366" style="stop-color:#000B8C"/>
	</linearGradient>
	<circle class="st32" cx="68.6" cy="89.3" r="2.6"/>
	<linearGradient id="SVGID_33_" gradientUnits="userSpaceOnUse" x1="-2.7626" y1="136.3279" x2="102.4685" y2="63.3762">
		<stop  offset="0.392" style="stop-color:#10CFC9"/>
		<stop  offset="0.4605" style="stop-color:#0FCAC8"/>
		<stop  offset="0.5386" style="stop-color:#0EBCC4"/>
		<stop  offset="0.6215" style="stop-color:#0CA5BC"/>
		<stop  offset="0.7078" style="stop-color:#0A85B2"/>
		<stop  offset="0.7966" style="stop-color:#065CA5"/>
		<stop  offset="0.8863" style="stop-color:#022A96"/>
		<stop  offset="0.9366" style="stop-color:#000B8C"/>
	</linearGradient>
	<circle class="st33" cx="89" cy="72.7" r="2.6"/>
	<linearGradient id="SVGID_34_" gradientUnits="userSpaceOnUse" x1="10.0606" y1="155.5721" x2="115.2918" y2="82.6204">
		<stop  offset="0.392" style="stop-color:#10CFC9"/>
		<stop  offset="0.4605" style="stop-color:#0FCAC8"/>
		<stop  offset="0.5386" style="stop-color:#0EBCC4"/>
		<stop  offset="0.6215" style="stop-color:#0CA5BC"/>
		<stop  offset="0.7078" style="stop-color:#0A85B2"/>
		<stop  offset="0.7966" style="stop-color:#065CA5"/>
		<stop  offset="0.8863" style="stop-color:#022A96"/>
		<stop  offset="0.9366" style="stop-color:#000B8C"/>
	</linearGradient>
	<circle class="st34" cx="93" cy="98.1" r="2.6"/>
	<linearGradient id="SVGID_35_" gradientUnits="userSpaceOnUse" x1="-0.4076" y1="138.7723" x2="104.8235" y2="65.8206">
		<stop  offset="0.392" style="stop-color:#10CFC9"/>
		<stop  offset="0.4605" style="stop-color:#0FCAC8"/>
		<stop  offset="0.5386" style="stop-color:#0EBCC4"/>
		<stop  offset="0.6215" style="stop-color:#0CA5BC"/>
		<stop  offset="0.7078" style="stop-color:#0A85B2"/>
		<stop  offset="0.7966" style="stop-color:#065CA5"/>
		<stop  offset="0.8863" style="stop-color:#022A96"/>
		<stop  offset="0.9366" style="stop-color:#000B8C"/>
	</linearGradient>
	<circle class="st35" cx="85.2" cy="79.4" r="2.6"/>
	<linearGradient id="SVGID_36_" gradientUnits="userSpaceOnUse" x1="4.1445" y1="146.2912" x2="109.3757" y2="73.3396">
		<stop  offset="0.392" style="stop-color:#10CFC9"/>
		<stop  offset="0.4605" style="stop-color:#0FCAC8"/>
		<stop  offset="0.5386" style="stop-color:#0EBCC4"/>
		<stop  offset="0.6215" style="stop-color:#0CA5BC"/>
		<stop  offset="0.7078" style="stop-color:#0A85B2"/>
		<stop  offset="0.7966" style="stop-color:#065CA5"/>
		<stop  offset="0.8863" style="stop-color:#022A96"/>
		<stop  offset="0.9366" style="stop-color:#000B8C"/>
	</linearGradient>
	<circle class="st36" cx="96.9" cy="82" r="2.6"/>
	<linearGradient id="SVGID_37_" gradientUnits="userSpaceOnUse" x1="8.578196e-02" y1="140.4366" x2="105.3169" y2="67.4849">
		<stop  offset="0.392" style="stop-color:#10CFC9"/>
		<stop  offset="0.4605" style="stop-color:#0FCAC8"/>
		<stop  offset="0.5386" style="stop-color:#0EBCC4"/>
		<stop  offset="0.6215" style="stop-color:#0CA5BC"/>
		<stop  offset="0.7078" style="stop-color:#0A85B2"/>
		<stop  offset="0.7966" style="stop-color:#065CA5"/>
		<stop  offset="0.8863" style="stop-color:#022A96"/>
		<stop  offset="0.9366" style="stop-color:#000B8C"/>
	</linearGradient>
	<circle class="st37" cx="77.5" cy="86.8" r="2.6"/>
	<linearGradient id="SVGID_38_" gradientUnits="userSpaceOnUse" x1="7.6143" y1="151.2963" x2="112.8455" y2="78.3447">
		<stop  offset="0.392" style="stop-color:#10CFC9"/>
		<stop  offset="0.4605" style="stop-color:#0FCAC8"/>
		<stop  offset="0.5386" style="stop-color:#0EBCC4"/>
		<stop  offset="0.6215" style="stop-color:#0CA5BC"/>
		<stop  offset="0.7078" style="stop-color:#0A85B2"/>
		<stop  offset="0.7966" style="stop-color:#065CA5"/>
		<stop  offset="0.8863" style="stop-color:#022A96"/>
		<stop  offset="0.9366" style="stop-color:#000B8C"/>
	</linearGradient>
	<circle class="st38" cx="100.8" cy="86.7" r="2.6"/>
	<linearGradient id="SVGID_39_" gradientUnits="userSpaceOnUse" x1="0.7199" y1="141.3513" x2="105.951" y2="68.3996">
		<stop  offset="0.392" style="stop-color:#10CFC9"/>
		<stop  offset="0.4605" style="stop-color:#0FCAC8"/>
		<stop  offset="0.5386" style="stop-color:#0EBCC4"/>
		<stop  offset="0.6215" style="stop-color:#0CA5BC"/>
		<stop  offset="0.7078" style="stop-color:#0A85B2"/>
		<stop  offset="0.7966" style="stop-color:#065CA5"/>
		<stop  offset="0.8863" style="stop-color:#022A96"/>
		<stop  offset="0.9366" style="stop-color:#000B8C"/>
	</linearGradient>
	<circle class="st39" cx="92.3" cy="77.8" r="2.6"/>
	<linearGradient id="SVGID_40_" gradientUnits="userSpaceOnUse" x1="7.3312" y1="150.888" x2="112.5624" y2="77.9364">
		<stop  offset="0.392" style="stop-color:#10CFC9"/>
		<stop  offset="0.4605" style="stop-color:#0FCAC8"/>
		<stop  offset="0.5386" style="stop-color:#0EBCC4"/>
		<stop  offset="0.6215" style="stop-color:#0CA5BC"/>
		<stop  offset="0.7078" style="stop-color:#0A85B2"/>
		<stop  offset="0.7966" style="stop-color:#065CA5"/>
		<stop  offset="0.8863" style="stop-color:#022A96"/>
		<stop  offset="0.9366" style="stop-color:#000B8C"/>
	</linearGradient>
	<circle class="st40" cx="95.1" cy="90" r="2.6"/>
	<linearGradient id="SVGID_41_" gradientUnits="userSpaceOnUse" x1="9.5103" y1="153.9489" x2="114.7414" y2="80.9972">
		<stop  offset="0.392" style="stop-color:#10CFC9"/>
		<stop  offset="0.4605" style="stop-color:#0FCAC8"/>
		<stop  offset="0.5386" style="stop-color:#0EBCC4"/>
		<stop  offset="0.6215" style="stop-color:#0CA5BC"/>
		<stop  offset="0.7078" style="stop-color:#0A85B2"/>
		<stop  offset="0.7966" style="stop-color:#065CA5"/>
		<stop  offset="0.8863" style="stop-color:#022A96"/>
		<stop  offset="0.9366" style="stop-color:#000B8C"/>
	</linearGradient>
	<circle class="st41" cx="80.1" cy="105" r="2.6"/>
	<linearGradient id="SVGID_42_" gradientUnits="userSpaceOnUse" x1="5.7477" y1="148.6037" x2="110.9788" y2="75.6521">
		<stop  offset="0.392" style="stop-color:#10CFC9"/>
		<stop  offset="0.4605" style="stop-color:#0FCAC8"/>
		<stop  offset="0.5386" style="stop-color:#0EBCC4"/>
		<stop  offset="0.6215" style="stop-color:#0CA5BC"/>
		<stop  offset="0.7078" style="stop-color:#0A85B2"/>
		<stop  offset="0.7966" style="stop-color:#065CA5"/>
		<stop  offset="0.8863" style="stop-color:#022A96"/>
		<stop  offset="0.9366" style="stop-color:#000B8C"/>
	</linearGradient>
	<circle class="st42" cx="104.1" cy="80.4" r="2.6"/>
	<linearGradient id="SVGID_43_" gradientUnits="userSpaceOnUse" x1="3.7143" y1="145.6706" x2="108.9454" y2="72.7189">
		<stop  offset="0.392" style="stop-color:#10CFC9"/>
		<stop  offset="0.4605" style="stop-color:#0FCAC8"/>
		<stop  offset="0.5386" style="stop-color:#0EBCC4"/>
		<stop  offset="0.6215" style="stop-color:#0CA5BC"/>
		<stop  offset="0.7078" style="stop-color:#0A85B2"/>
		<stop  offset="0.7966" style="stop-color:#065CA5"/>
		<stop  offset="0.8863" style="stop-color:#022A96"/>
		<stop  offset="0.9366" style="stop-color:#000B8C"/>
	</linearGradient>
	<circle class="st43" cx="90.9" cy="85.2" r="2.6"/>
	<linearGradient id="SVGID_44_" gradientUnits="userSpaceOnUse" x1="6.3411" y1="149.4597" x2="111.5722" y2="76.5081">
		<stop  offset="0.392" style="stop-color:#10CFC9"/>
		<stop  offset="0.4605" style="stop-color:#0FCAC8"/>
		<stop  offset="0.5386" style="stop-color:#0EBCC4"/>
		<stop  offset="0.6215" style="stop-color:#0CA5BC"/>
		<stop  offset="0.7078" style="stop-color:#0A85B2"/>
		<stop  offset="0.7966" style="stop-color:#065CA5"/>
		<stop  offset="0.8863" style="stop-color:#022A96"/>
		<stop  offset="0.9366" style="stop-color:#000B8C"/>
	</linearGradient>
	<circle class="st44" cx="88.4" cy="92.6" r="2.6"/>
	<linearGradient id="SVGID_45_" gradientUnits="userSpaceOnUse" x1="2.1965" y1="143.4812" x2="107.4276" y2="70.5296">
		<stop  offset="0.392" style="stop-color:#10CFC9"/>
		<stop  offset="0.4605" style="stop-color:#0FCAC8"/>
		<stop  offset="0.5386" style="stop-color:#0EBCC4"/>
		<stop  offset="0.6215" style="stop-color:#0CA5BC"/>
		<stop  offset="0.7078" style="stop-color:#0A85B2"/>
		<stop  offset="0.7966" style="stop-color:#065CA5"/>
		<stop  offset="0.8863" style="stop-color:#022A96"/>
		<stop  offset="0.9366" style="stop-color:#000B8C"/>
	</linearGradient>
	<circle class="st45" cx="84.1" cy="86.7" r="2.6"/>
	<linearGradient id="SVGID_46_" gradientUnits="userSpaceOnUse" x1="6.0957" y1="149.1058" x2="111.3268" y2="76.1541">
		<stop  offset="0.392" style="stop-color:#10CFC9"/>
		<stop  offset="0.4605" style="stop-color:#0FCAC8"/>
		<stop  offset="0.5386" style="stop-color:#0EBCC4"/>
		<stop  offset="0.6215" style="stop-color:#0CA5BC"/>
		<stop  offset="0.7078" style="stop-color:#0A85B2"/>
		<stop  offset="0.7966" style="stop-color:#065CA5"/>
		<stop  offset="0.8863" style="stop-color:#022A96"/>
		<stop  offset="0.9366" style="stop-color:#000B8C"/>
	</linearGradient>
	<circle class="st46" cx="82.7" cy="96" r="2.6"/>
	<linearGradient id="SVGID_47_" gradientUnits="userSpaceOnUse" x1="11.4868" y1="156.8823" x2="116.718" y2="83.9307">
		<stop  offset="0.392" style="stop-color:#10CFC9"/>
		<stop  offset="0.4605" style="stop-color:#0FCAC8"/>
		<stop  offset="0.5386" style="stop-color:#0EBCC4"/>
		<stop  offset="0.6215" style="stop-color:#0CA5BC"/>
		<stop  offset="0.7078" style="stop-color:#0A85B2"/>
		<stop  offset="0.7966" style="stop-color:#065CA5"/>
		<stop  offset="0.8863" style="stop-color:#022A96"/>
		<stop  offset="0.9366" style="stop-color:#000B8C"/>
	</linearGradient>
	<circle class="st47" cx="88.4" cy="103.6" r="2.6"/>
	<linearGradient id="SVGID_48_" gradientUnits="userSpaceOnUse" x1="5.7285" y1="148.0034" x2="110.9596" y2="75.0517">
		<stop  offset="0.392" style="stop-color:#10CFC9"/>
		<stop  offset="0.4605" style="stop-color:#0FCAC8"/>
		<stop  offset="0.5386" style="stop-color:#0EBCC4"/>
		<stop  offset="0.6215" style="stop-color:#0CA5BC"/>
		<stop  offset="0.7078" style="stop-color:#0A85B2"/>
		<stop  offset="0.7966" style="stop-color:#065CA5"/>
		<stop  offset="0.8863" style="stop-color:#022A96"/>
		<stop  offset="0.9366" style="stop-color:#000B8C"/>
	</linearGradient>
	<circle class="st48" cx="75.7" cy="99.5" r="2.6"/>
	<linearGradient id="SVGID_49_" gradientUnits="userSpaceOnUse" x1="6.3442" y1="149.4642" x2="111.5753" y2="76.5125">
		<stop  offset="0.392" style="stop-color:#10CFC9"/>
		<stop  offset="0.4605" style="stop-color:#0FCAC8"/>
		<stop  offset="0.5386" style="stop-color:#0EBCC4"/>
		<stop  offset="0.6215" style="stop-color:#0CA5BC"/>
		<stop  offset="0.7078" style="stop-color:#0A85B2"/>
		<stop  offset="0.7966" style="stop-color:#065CA5"/>
		<stop  offset="0.8863" style="stop-color:#022A96"/>
		<stop  offset="0.9366" style="stop-color:#000B8C"/>
	</linearGradient>
	<circle class="st49" cx="69.5" cy="105.7" r="2.6"/>
	<linearGradient id="SVGID_50_" gradientUnits="userSpaceOnUse" x1="1.7816" y1="142.8828" x2="107.0127" y2="69.9311">
		<stop  offset="0.392" style="stop-color:#10CFC9"/>
		<stop  offset="0.4605" style="stop-color:#0FCAC8"/>
		<stop  offset="0.5386" style="stop-color:#0EBCC4"/>
		<stop  offset="0.6215" style="stop-color:#0CA5BC"/>
		<stop  offset="0.7078" style="stop-color:#0A85B2"/>
		<stop  offset="0.7966" style="stop-color:#065CA5"/>
		<stop  offset="0.8863" style="stop-color:#022A96"/>
		<stop  offset="0.9366" style="stop-color:#000B8C"/>
	</linearGradient>
	<circle class="st50" cx="74.3" cy="92.6" r="2.6"/>
	<linearGradient id="SVGID_51_" gradientUnits="userSpaceOnUse" x1="2.1604" y1="143.4293" x2="107.3916" y2="70.4776">
		<stop  offset="0.392" style="stop-color:#10CFC9"/>
		<stop  offset="0.4605" style="stop-color:#0FCAC8"/>
		<stop  offset="0.5386" style="stop-color:#0EBCC4"/>
		<stop  offset="0.6215" style="stop-color:#0CA5BC"/>
		<stop  offset="0.7078" style="stop-color:#0A85B2"/>
		<stop  offset="0.7966" style="stop-color:#065CA5"/>
		<stop  offset="0.8863" style="stop-color:#022A96"/>
		<stop  offset="0.9366" style="stop-color:#000B8C"/>
	</linearGradient>
	<circle class="st51" cx="69.2" cy="97" r="2.6"/>
	<linearGradient id="SVGID_52_" gradientUnits="userSpaceOnUse" x1="11.8312" y1="157.3791" x2="117.0624" y2="84.4274">
		<stop  offset="0.392" style="stop-color:#10CFC9"/>
		<stop  offset="0.4605" style="stop-color:#0FCAC8"/>
		<stop  offset="0.5386" style="stop-color:#0EBCC4"/>
		<stop  offset="0.6215" style="stop-color:#0CA5BC"/>
		<stop  offset="0.7078" style="stop-color:#0A85B2"/>
		<stop  offset="0.7966" style="stop-color:#065CA5"/>
		<stop  offset="0.8863" style="stop-color:#022A96"/>
		<stop  offset="0.9366" style="stop-color:#000B8C"/>
	</linearGradient>
	<circle class="st52" cx="101.6" cy="95.2" r="2.6"/>
	<linearGradient id="SVGID_53_" gradientUnits="userSpaceOnUse" x1="-17.3801" y1="115.2424" x2="87.851" y2="42.2908">
		<stop  offset="0.392" style="stop-color:#10CFC9"/>
		<stop  offset="0.4605" style="stop-color:#0FCAC8"/>
		<stop  offset="0.5386" style="stop-color:#0EBCC4"/>
		<stop  offset="0.6215" style="stop-color:#0CA5BC"/>
		<stop  offset="0.7078" style="stop-color:#0A85B2"/>
		<stop  offset="0.7966" style="stop-color:#065CA5"/>
		<stop  offset="0.8863" style="stop-color:#022A96"/>
		<stop  offset="0.9366" style="stop-color:#000B8C"/>
	</linearGradient>
	<circle class="st53" cx="100.8" cy="33.3" r="2.6"/>
	<linearGradient id="SVGID_54_" gradientUnits="userSpaceOnUse" x1="-26.167" y1="102.5675" x2="79.0641" y2="29.6158">
		<stop  offset="0.392" style="stop-color:#10CFC9"/>
		<stop  offset="0.4605" style="stop-color:#0FCAC8"/>
		<stop  offset="0.5386" style="stop-color:#0EBCC4"/>
		<stop  offset="0.6215" style="stop-color:#0CA5BC"/>
		<stop  offset="0.7078" style="stop-color:#0A85B2"/>
		<stop  offset="0.7966" style="stop-color:#065CA5"/>
		<stop  offset="0.8863" style="stop-color:#022A96"/>
		<stop  offset="0.9366" style="stop-color:#000B8C"/>
	</linearGradient>
	<circle class="st54" cx="92.5" cy="20.3" r="2.6"/>
	<linearGradient id="SVGID_55_" gradientUnits="userSpaceOnUse" x1="10.1197" y1="154.9102" x2="115.3508" y2="81.9586">
		<stop  offset="0.392" style="stop-color:#10CFC9"/>
		<stop  offset="0.4605" style="stop-color:#0FCAC8"/>
		<stop  offset="0.5386" style="stop-color:#0EBCC4"/>
		<stop  offset="0.6215" style="stop-color:#0CA5BC"/>
		<stop  offset="0.7078" style="stop-color:#0A85B2"/>
		<stop  offset="0.7966" style="stop-color:#065CA5"/>
		<stop  offset="0.8863" style="stop-color:#022A96"/>
		<stop  offset="0.9366" style="stop-color:#000B8C"/>
	</linearGradient>
	<circle class="st55" cx="108.4" cy="86.8" r="2.6"/>
	<linearGradient id="SVGID_56_" gradientUnits="userSpaceOnUse" x1="10.5027" y1="155.4628" x2="115.7338" y2="82.5111">
		<stop  offset="0.392" style="stop-color:#10CFC9"/>
		<stop  offset="0.4605" style="stop-color:#0FCAC8"/>
		<stop  offset="0.5386" style="stop-color:#0EBCC4"/>
		<stop  offset="0.6215" style="stop-color:#0CA5BC"/>
		<stop  offset="0.7078" style="stop-color:#0A85B2"/>
		<stop  offset="0.7966" style="stop-color:#065CA5"/>
		<stop  offset="0.8863" style="stop-color:#022A96"/>
		<stop  offset="0.9366" style="stop-color:#000B8C"/>
	</linearGradient>
	<circle class="st56" cx="75" cy="110.8" r="2.6"/>
	<linearGradient id="SVGID_57_" gradientUnits="userSpaceOnUse" x1="-6.2599" y1="131.2831" x2="98.9712" y2="58.3314">
		<stop  offset="0.392" style="stop-color:#10CFC9"/>
		<stop  offset="0.4605" style="stop-color:#0FCAC8"/>
		<stop  offset="0.5386" style="stop-color:#0EBCC4"/>
		<stop  offset="0.6215" style="stop-color:#0CA5BC"/>
		<stop  offset="0.7078" style="stop-color:#0A85B2"/>
		<stop  offset="0.7966" style="stop-color:#065CA5"/>
		<stop  offset="0.8863" style="stop-color:#022A96"/>
		<stop  offset="0.9366" style="stop-color:#000B8C"/>
	</linearGradient>
	<circle class="st57" cx="111" cy="50" r="2.6"/>
	<linearGradient id="SVGID_58_" gradientUnits="userSpaceOnUse" x1="3.2545" y1="145.0074" x2="108.4856" y2="72.0557">
		<stop  offset="0.392" style="stop-color:#10CFC9"/>
		<stop  offset="0.4605" style="stop-color:#0FCAC8"/>
		<stop  offset="0.5386" style="stop-color:#0EBCC4"/>
		<stop  offset="0.6215" style="stop-color:#0CA5BC"/>
		<stop  offset="0.7078" style="stop-color:#0A85B2"/>
		<stop  offset="0.7966" style="stop-color:#065CA5"/>
		<stop  offset="0.8863" style="stop-color:#022A96"/>
		<stop  offset="0.9366" style="stop-color:#000B8C"/>
	</linearGradient>
	<circle class="st58" cx="113.5" cy="68.6" r="2.6"/>
</g>
<g>
	<text transform="matrix(1 0 0 1 127.0326 91.0481)" class="st59 st60 st61">FUTURE  TECH</text>
	<circle class="st0" cx="335.9" cy="73.1" r="3.3"/>
</g>
</svg>
