<?xml version="1.0" encoding="UTF-8"?>
<svg width="182px" height="115px" viewBox="0 0 182 115" version="1.1" xmlns="http://www.w3.org/2000/svg" xmlns:xlink="http://www.w3.org/1999/xlink">
    <!-- Generator: Sketch 55.2 (78181) - https://sketchapp.com -->
    <title>CDDFT-log</title>
    <desc>Created with Sketch.</desc>
    <g id="Welcome" stroke="none" stroke-width="1" fill="none" fill-rule="evenodd">
        <g id="Desktop---Home" transform="translate(-306.000000, -1791.000000)">
            <g id="Solving-the-workforce-challenge" transform="translate(-34.000000, 595.000000)">
                <g id="CDDFT-log" transform="translate(340.000000, 1196.000000)">
                    <path d="M93.3999,0 L93.3999,35.6996 L181.6,35.6996 L181.6,0 L93.3999,0 Z M113.2,32.1996 L107.2,12.2998 L107.1,12.2998 L103.1,32.1996 L95.8999,32.1996 L102,3.39996 L111.6,3.39996 L117.5,23.2997 L117.6,23.2997 L121.6,3.39996 L128.8,3.39996 L122.7,32.0996 L113.2,32.0996 L113.2,32.1996 Z M142.5,32.1996 L145.1,19.8998 L136,19.8998 L133.5,32.1996 L125.8,32.1996 L131.8,3.49996 L139.5,3.49996 L137.2,14.4998 L146.3,14.4998 L148.6,3.49996 L156.3,3.49996 L150.3,32.1996 L142.5,32.1996 Z M176.4,9.99988 C174.9,9.29989 172.9,8.69989 170.1,8.69989 C167.1,8.69989 164.6,9.19989 164.6,11.4999 C164.6,15.5998 175.8,14.0998 175.8,22.7997 C175.8,30.7996 168.4,32.7996 161.8,32.7996 C158.8,32.7996 155.4,32.0996 152.9,31.2996 L154.7,25.4997 C156.2,26.4997 159.3,27.0997 161.8,27.0997 C164.2,27.0997 167.9,26.5997 167.9,23.6997 C167.9,19.0998 156.7,20.7997 156.7,12.6998 C156.7,5.29993 163.2,3.09996 169.5,3.09996 C173,3.09996 176.4,3.49996 178.3,4.39995 L176.4,9.99988 Z" id="Shape" fill="#005EB8" fill-rule="nonzero"></path>
                    <path d="M13.2,45.4011 C11.9,44.8011 10.6,44.6011 9.30003,44.6011 C3.90001,44.6011 0,48.201 0,53.601 C0,59.2009 3.70001,62.8008 9.30003,62.8008 C10.3,62.8008 12,62.7008 13.3,62.2008 L13.1,59.8009 C12.2,60.3009 10.5,60.7009 9.30003,60.7009 C5.60002,60.7009 2.70001,58.0009 2.70001,53.801 C2.70001,49.901 5.40002,46.901 9.40003,46.901 C10.7,46.901 11.9,47.201 13,47.901 L13.2,45.4011 Z" id="Path" fill="#000000" fill-rule="nonzero"></path>
                    <path d="M15.1,55.9995 C15.1,59.6995 17.8,62.6994 21.6,62.6994 C25.5,62.6994 28.1,59.6995 28.1,55.9995 C28.1,52.0995 25.5,49.2996 21.6,49.2996 C17.7,49.2996 15.1,52.0995 15.1,55.9995 Z M17.6,55.9995 C17.6,53.5995 19.1,51.1995 21.6,51.1995 C24.1,51.1995 25.6,53.5995 25.6,55.9995 C25.6,58.2995 24.4,60.7994 21.6,60.7994 C18.9,60.8994 17.6,58.2995 17.6,55.9995 Z" id="Shape" fill="#000000"></path>
                    <path d="M42.6,49.5994 L40.2,49.5994 L40.2,55.4993 C40.2,58.5993 39,60.7992 36.3,60.7992 C34.2,60.6992 33.6,59.1993 33.6,56.1993 L33.6,49.5994 L31.2,49.5994 L31.2,57.1993 C31.2,60.5992 32.7,62.6992 36,62.6992 C37.8,62.6992 39.5,61.7992 40.2,60.3992 L40.3,60.3992 L40.3,62.3992 L42.6,62.3992 L42.6,49.5994 Z" id="Path" fill="#000000" fill-rule="nonzero"></path>
                    <path d="M46.6001,62.4993 L49.0001,62.4993 L49.0001,56.5993 C49.0001,53.4994 50.2001,51.2994 52.9001,51.2994 C55.0001,51.3994 55.6001,52.8994 55.6001,55.8993 L55.6001,62.4993 L58.0001,62.4993 L58.0001,54.8993 C58.0001,51.4994 56.5001,49.3994 53.2001,49.3994 C51.4001,49.3994 49.7001,50.2994 49.0001,51.6994 L49.0001,49.6994 L46.7001,49.6994 L46.7001,62.4993 L46.6001,62.4993 Z" id="Path" fill="#000000" fill-rule="nonzero"></path>
                    <path d="M68.7001,49.6003 L65.3001,49.6003 L65.3001,45.9004 L63.0001,46.7004 L63.0001,49.7003 L60.1001,49.7003 L60.1001,51.6003 L63.0001,51.6003 L63.0001,59.0002 C63.0001,61.6002 64.5001,62.7002 67.0001,62.7002 C67.8001,62.7002 68.5001,62.5002 69.0001,62.3002 L69.0001,60.3002 C68.6001,60.5002 68.1001,60.8002 67.4001,60.8002 C66.3001,60.8002 65.4001,60.0002 65.4001,58.5002 L65.4001,51.5003 L68.8001,51.5003 L68.8001,49.6003 L68.7001,49.6003 Z" id="Path" fill="#000000" fill-rule="nonzero"></path>
                    <path d="M70.5,67.8992 C70.9,67.9992 71.4,68.0992 72.1,68.0992 C75.2,68.0992 76.1,65.2993 77,62.7993 L81.7,49.6995 L79.3,49.6995 L75.8,60.2993 L72.3,49.6995 L69.7,49.6995 L74.1,61.6993 C74.3,62.0993 74.6,62.7993 74.6,63.0993 C74.6,63.3993 73.9,66.2993 71.8,66.2993 C71.4,66.2993 71,66.1993 70.7,66.0993 L70.5,67.8992 Z" id="Path" fill="#000000" fill-rule="nonzero"></path>
                    <path d="M91.2,62.4998 L96.4,62.4998 C102.2,62.4998 105.8,59.4998 105.8,53.5999 C105.8,48.2 101.6,45 96.4,45 L91.2,45 L91.2,62.4998 Z M93.7,47.1 L96.6,47.1 C100.2,47.1 103,49.4999 103,53.5999 C103,58.0998 100.6,60.1998 96.3,60.1998 L93.7,60.1998 L93.7,47.1 Z" id="Shape" fill="#000000"></path>
                    <path d="M120.5,49.5994 L118.1,49.5994 L118.1,55.4993 C118.1,58.5993 116.9,60.7992 114.2,60.7992 C112.1,60.6992 111.5,59.1993 111.5,56.1993 L111.5,49.5994 L109.1,49.5994 L109.1,57.1993 C109.1,60.5992 110.6,62.6992 113.9,62.6992 C115.7,62.6992 117.4,61.7992 118.1,60.3992 L118.2,60.3992 L118.2,62.3992 L120.5,62.3992 L120.5,49.5994 Z" id="Path" fill="#000000" fill-rule="nonzero"></path>
                    <path d="M124.5,62.4993 L126.9,62.4993 L126.9,56.6993 C126.9,53.4994 128.3,51.4994 130.4,51.4994 C130.8,51.4994 131.3,51.4994 131.7,51.6994 L131.7,49.5994 C131.2,49.4994 130.8,49.3994 130.1,49.3994 C128.7,49.3994 127.4,50.3994 126.7,51.6994 L126.7,49.6994 L124.5,49.6994 L124.5,62.4993 Z" id="Path" fill="#000000" fill-rule="nonzero"></path>
                    <path d="M134.2,62.4994 L136.6,62.4994 L136.6,56.5994 C136.6,53.4995 137.8,51.2995 140.5,51.2995 C142.6,51.3995 143.2,52.8995 143.2,55.8995 L143.2,62.4994 L145.6,62.4994 L145.6,54.8995 C145.6,51.4995 144.1,49.3995 140.8,49.3995 C139,49.3995 137.5,50.1995 136.7,51.4995 L136.7,43.5996 L134.3,43.5996 L134.3,62.4994 L134.2,62.4994 Z" id="Path" fill="#000000" fill-rule="nonzero"></path>
                    <path d="M150.3,52.4994 C151.3,51.6994 152.7,51.1994 154,51.1994 C156.4,51.1994 157.2,52.2994 157.2,54.4994 C156.3,54.3994 155.6,54.3994 154.7,54.3994 C152.3,54.3994 148.7,55.3994 148.7,58.5993 C148.7,61.3993 150.6,62.5993 153.4,62.5993 C155.6,62.5993 156.8,61.3993 157.4,60.5993 L157.5,60.5993 L157.5,62.2993 L159.7,62.2993 C159.6,61.8993 159.6,61.1993 159.6,59.7993 L159.6,54.4994 C159.6,50.9994 158.1,49.1995 154.4,49.1995 C152.8,49.1995 151.4,49.6995 150.2,50.3994 L150.3,52.4994 Z M157.2,57.4993 C157.2,59.3993 156,60.8993 153.6,60.8993 C152.5,60.8993 151.2,60.1993 151.2,58.7993 C151.2,56.4994 154.4,56.2994 155.7,56.2994 C156.2,56.2994 156.7,56.3994 157.2,56.3994 L157.2,57.4993 Z" id="Shape" fill="#000000"></path>
                    <path d="M163.4,62.4994 L165.8,62.4994 L165.8,55.9995 C165.8,53.5995 166.8,51.1995 169.2,51.1995 C171.1,51.1995 171.5,53.1995 171.5,54.7995 L171.5,62.3994 L173.9,62.3994 L173.9,55.9995 C173.9,53.5995 174.9,51.1995 177.3,51.1995 C179.2,51.1995 179.6,53.1995 179.6,54.7995 L179.6,62.3994 L182,62.3994 L182,54.1995 C182,51.3995 180.8,49.2996 177.5,49.2996 C176.3,49.2996 174.4,49.9996 173.5,51.7995 C172.8,50.0996 171.3,49.2996 169.9,49.2996 C168,49.2996 166.7,49.9996 165.8,51.4995 L165.8,49.5996 L163.6,49.5996 L163.6,62.4994 L163.4,62.4994 Z" id="Path" fill="#000000" fill-rule="nonzero"></path>
                    <path d="M8.50003,80.799 C9.50003,79.999 10.9,79.499 12.2,79.499 C14.6,79.499 15.4,80.599 15.4,82.799 C14.5,82.699 13.8,82.699 12.9,82.699 C10.5,82.699 6.90002,83.6989 6.90002,86.8989 C6.90002,89.6989 8.80003,90.8988 11.6,90.8988 C13.8,90.8988 15,89.6989 15.6,88.8989 L15.6,90.5988 L17.8,90.5988 C17.8,90.1989 17.7001,89.4989 17.7001,88.0989 L17.7001,82.799 C17.7001,79.299 16.2,77.499 12.5,77.499 C10.9,77.499 9.50003,77.999 8.30003,78.699 L8.50003,80.799 Z M15.4,85.6989 C15.4,87.5989 14.2,89.0989 11.8,89.0989 C10.7,89.0989 9.40003,88.3989 9.40003,86.9989 C9.40003,84.6989 12.6,84.4989 13.9,84.4989 C14.4,84.4989 14.9,84.4989 15.4,84.4989 L15.4,85.6989 Z" id="Shape" fill="#000000"></path>
                    <path d="M21.7001,90.699 L24.0001,90.699 L24.0001,84.799 C24.0001,81.6991 25.2,79.4991 27.9,79.4991 C30,79.5991 30.6,81.0991 30.6,84.0991 L30.6,90.699 L33,90.699 L33,83.0991 C33,79.6991 31.5,77.5991 28.2,77.5991 C26.4,77.5991 24.7001,78.4991 24.0001,79.8991 L24.0001,77.8991 L21.7001,77.8991 L21.7001,90.699 Z" id="Path" fill="#000000" fill-rule="nonzero"></path>
                    <path d="M46.1,90.6991 L48.4,90.6991 L48.4,71.7993 L46,71.7993 L46,79.5992 C45.3,78.3992 44,77.4992 41.7001,77.4992 C38.0001,77.4992 36.2001,80.4992 36.2001,83.9992 C36.2001,87.4991 37.8001,90.8991 41.7001,90.8991 C44,90.8991 45.4,89.6991 46.1,88.7991 L46.2,88.7991 L46.2,90.6991 L46.1,90.6991 Z M38.7001,84.2992 C38.6001,81.9992 39.7001,79.4992 42.2,79.4992 C44.8,79.4992 46,81.8992 46,84.2992 C46,86.3991 44.9,89.0991 42.2,89.0991 C39.7001,89.0991 38.6001,86.2991 38.7001,84.2992 Z" id="Shape" fill="#000000"></path>
                    <path d="M59.3,90.6995 L64.5,90.6995 C70.3,90.6995 73.9,87.6995 73.9,81.7996 C73.9,76.3997 69.7,73.1997 64.5,73.1997 L59.3,73.1997 L59.3,90.6995 Z M61.8,75.3997 L64.7,75.3997 C68.3,75.3997 71.1,77.7997 71.1,81.8996 C71.1,86.3996 68.7,88.4995 64.4,88.4995 L61.8,88.4995 L61.8,75.3997 Z" id="Shape" fill="#000000"></path>
                    <path d="M78.1,80.799 C79.1,79.999 80.5,79.499 81.8,79.499 C84.2,79.499 85,80.599 85,82.799 C84.1,82.699 83.4,82.699 82.5,82.699 C80.1,82.699 76.5,83.6989 76.5,86.8989 C76.5,89.6989 78.4,90.8988 81.2,90.8988 C83.4,90.8988 84.6,89.6989 85.2,88.8989 L85.2,90.5988 L87.4,90.5988 C87.3,90.1989 87.3,89.4989 87.3,88.0989 L87.3,82.799 C87.3,79.299 85.8,77.499 82.1,77.499 C80.5,77.499 79.1,77.999 77.9,78.699 L78.1,80.799 Z M85,85.6989 C85,87.5989 83.8,89.0989 81.4,89.0989 C80.3,89.0989 79,88.3989 79,86.9989 C79,84.6989 82.2,84.4989 83.5,84.4989 C84,84.4989 84.5,84.4989 85,84.4989 L85,85.6989 Z" id="Shape" fill="#000000"></path>
                    <path d="M91.3,90.699 L93.7,90.699 L93.7,84.899 C93.7,81.6991 95.1,79.6991 97.2,79.6991 C97.6,79.6991 98.1,79.6991 98.5,79.8991 L98.5,77.7991 C98,77.6991 97.6,77.5991 96.9,77.5991 C95.5,77.5991 94.2,78.5991 93.6,79.8991 L93.5,79.8991 L93.5,77.8991 L91.3,77.8991 L91.3,90.699 Z" id="Path" fill="#000000" fill-rule="nonzero"></path>
                    <polygon id="Path" fill="#000000" fill-rule="nonzero" points="101.3 90.6991 103.6 90.6991 103.6 71.7993 101.3 71.7993"></polygon>
                    <path d="M108.2,90.7001 L110.6,90.7001 L110.6,77.9002 L108.2,77.9002 L108.2,90.7001 Z M110.7,72.3003 L108,72.3003 L108,75.0003 L110.7,75.0003 L110.7,72.3003 Z" id="Shape" fill="#000000"></path>
                    <path d="M114.8,90.699 L117.2,90.699 L117.2,84.799 C117.2,81.6991 118.4,79.4991 121.1,79.4991 C123.2,79.5991 123.8,81.0991 123.8,84.0991 L123.8,90.699 L126.2,90.699 L126.2,83.0991 C126.2,79.6991 124.7,77.5991 121.4,77.5991 C119.6,77.5991 117.9,78.4991 117.2,79.8991 L117.1,79.8991 L117.1,77.8991 L114.8,77.8991 L114.8,90.699 Z" id="Path" fill="#000000" fill-rule="nonzero"></path>
                    <path d="M141.5,77.8991 L139.3,77.8991 L139.3,79.7991 C138.6,78.3991 137.3,77.5991 135.1,77.5991 C131.2,77.5991 129.4,81.0991 129.4,84.399 C129.4,87.699 131.2,90.699 134.9,90.699 C136.5,90.699 138.2,89.999 139.2,88.699 L139.3,88.699 L139.3,89.999 C139.3,92.6989 137.8,94.3989 135.3,94.3989 C133.6,94.3989 132.5,94.0989 130.7,93.1989 L130.4,95.3989 C132.5,96.0989 133.6,96.2989 135,96.2989 C139.6,96.2989 141.6,94.0989 141.6,90.199 L141.6,77.8991 L141.5,77.8991 Z M135.4,88.799 C133.2,88.799 131.8,86.699 131.8,84.299 C131.8,82.0991 133,79.4991 135.4,79.4991 C137.9,79.4991 139.1,81.7991 139.1,84.499 C139.1,86.799 137.6,88.799 135.4,88.799 Z" id="Shape" fill="#000000"></path>
                    <path d="M152.3,77.9002 L148.9,77.9002 L148.9,74.2002 L146.5,75.0002 L146.5,78.0002 L143.6,78.0002 L143.6,79.9001 L146.5,79.9001 L146.5,87.4 C146.5,90 148,91.1 150.5,91.1 C151.2,91.1 152,90.9 152.5,90.8 L152.5,88.8 C152.1,89 151.6,89.3 150.9,89.3 C149.8,89.3 148.9,88.5 148.9,87 L148.9,80.0001 L152.3,80.0001 L152.3,77.9002 Z" id="Path" fill="#000000" fill-rule="nonzero"></path>
                    <path d="M154.3,84.299 C154.3,87.999 157,90.9989 160.8,90.9989 C164.7,90.9989 167.3,87.999 167.3,84.299 C167.3,80.3991 164.7,77.5991 160.8,77.5991 C156.9,77.5991 154.3,80.3991 154.3,84.299 Z M156.8,84.299 C156.8,81.8991 158.3,79.4991 160.8,79.4991 C163.3,79.4991 164.8,81.8991 164.8,84.299 C164.8,86.599 163.6,89.099 160.8,89.099 C158.1,89.099 156.8,86.599 156.8,84.299 Z" id="Shape" fill="#000000"></path>
                    <path d="M170.5,90.699 L172.9,90.699 L172.9,84.799 C172.9,81.6991 174.1,79.4991 176.8,79.4991 C178.9,79.5991 179.5,81.0991 179.5,84.0991 L179.5,90.699 L181.9,90.699 L181.9,83.0991 C181.9,79.6991 180.4,77.5991 177.1,77.5991 C175.3,77.5991 173.6,78.4991 172.9,79.8991 L172.9,77.8991 L170.6,77.8991 L170.6,90.699 L170.5,90.699 Z" id="Path" fill="#000000" fill-rule="nonzero"></path>
                    <polygon id="Path" fill="#0072CE" fill-rule="nonzero" points="13.3 114.1 15 114.1 15 104.4 20.3 114.1 22.5 114.1 22.5 102.3 20.8 102.3 20.8 111.8 15.6 102.3 13.3 102.3"></polygon>
                    <polygon id="Path" fill="#0072CE" fill-rule="nonzero" points="25.5 114.1 27.1 114.1 27.1 108.7 32.8 108.7 32.8 114.1 34.5 114.1 34.5 102.3 32.8 102.3 32.8 107.2 27.1 107.2 27.1 102.3 25.5 102.3"></polygon>
                    <path d="M43.1001,102.5 C42.3001,102.2 41.4001,102.1 40.6001,102.1 C38.5001,102.1 36.8,103.2 36.8,105.3 C36.8,109 41.9001,108.2 41.9001,110.9 C41.9001,112.3 40.5001,112.8 39.6001,112.8 C38.7001,112.8 37.7001,112.5 37.1001,112.2 L36.9001,113.8 C37.7001,114 38.5001,114.3 39.3001,114.3 C41.7001,114.3 43.6001,113.3 43.6001,110.8 C43.6001,106.9 38.5001,107.4 38.5001,105.2 C38.5001,104 39.6001,103.6 40.6001,103.6 C41.5001,103.6 42.0001,103.8 42.8001,104.1 L43.1001,102.5 Z" id="Path" fill="#0072CE" fill-rule="nonzero"></path>
                    <polygon id="Path" fill="#0072CE" fill-rule="nonzero" points="50.3 114.1 52.0001 114.1 52.0001 108.7 56.4001 108.7 56.4001 107.2 52.0001 107.2 52.0001 103.8 56.6001 103.8 56.6001 102.3 50.3 102.3"></polygon>
                    <path d="M58,109.799 C58,112.298 59.8,114.298 62.4,114.298 C65,114.298 66.8,112.298 66.8,109.799 C66.8,107.199 65,105.299 62.4,105.299 C59.8,105.299 58,107.199 58,109.799 Z M59.7,109.799 C59.7,108.199 60.7,106.599 62.4,106.599 C64.1,106.599 65.1,108.199 65.1,109.799 C65.1,111.299 64.3,112.998 62.4,112.998 C60.5,112.998 59.7,111.299 59.7,109.799 Z" id="Shape" fill="#0072CE"></path>
                    <path d="M76.4,105.499 L74.8,105.499 L74.8,109.498 C74.8,111.598 74,113.098 72.2,113.098 C70.8,112.998 70.4,111.998 70.4,109.998 L70.4,105.499 L68.8,105.499 L68.8,110.598 C68.8,112.898 69.8,114.298 72,114.298 C73.2,114.298 74.4,113.698 74.8,112.698 L74.8,114.098 L76.3,114.098 L76.3,105.499 L76.4,105.499 Z" id="Path" fill="#0072CE" fill-rule="nonzero"></path>
                    <path d="M79,114.098 L80.6,114.098 L80.6,110.099 C80.6,107.999 81.4,106.499 83.2001,106.499 C84.6001,106.599 85.0001,107.599 85.0001,109.599 L85.0001,114.098 L86.6001,114.098 L86.6001,108.999 C86.6001,106.699 85.6001,105.299 83.4001,105.299 C82.2,105.299 81,105.899 80.6,106.899 L80.6,105.499 L79,105.499 L79,114.098 Z" id="Path" fill="#0072CE" fill-rule="nonzero"></path>
                    <path d="M95.3001,114.099 L96.8,114.099 L96.8,101.399 L95.2001,101.399 L95.2001,106.599 C94.7001,105.799 93.8001,105.199 92.3001,105.199 C89.8001,105.199 88.6001,107.199 88.6001,109.599 C88.6001,111.999 89.7001,114.299 92.3001,114.299 C93.8001,114.299 94.8001,113.499 95.2001,112.899 L95.2001,114.099 L95.3001,114.099 Z M90.4001,109.699 C90.4001,108.099 91.0001,106.499 92.8001,106.499 C94.5001,106.499 95.4001,108.099 95.4001,109.699 C95.4001,111.099 94.7001,112.899 92.9001,112.899 C91.0001,112.999 90.3001,111.099 90.4001,109.699 Z" id="Shape" fill="#0072CE"></path>
                    <path d="M99.9001,107.399 C100.5,106.899 101.5,106.499 102.4,106.499 C104,106.499 104.5,107.299 104.5,108.799 C103.9,108.799 103.4,108.799 102.8,108.799 C101.2,108.799 98.8,109.499 98.8,111.599 C98.8,113.499 100.1,114.299 102,114.299 C103.5,114.299 104.3,113.499 104.7,112.999 L104.7,114.099 L106.2,114.099 C106.2,113.799 106.1,113.399 106.1,112.399 L106.1,108.799 C106.1,106.399 105.1,105.199 102.6,105.199 C101.5,105.199 100.6,105.499 99.8001,105.999 L99.9001,107.399 Z M104.6,110.699 C104.6,111.999 103.8,112.999 102.2,112.999 C101.5,112.999 100.6,112.499 100.6,111.599 C100.6,110.099 102.7,109.899 103.6,109.899 C103.9,109.899 104.3,109.899 104.6,109.899 L104.6,110.699 Z" id="Shape" fill="#0072CE"></path>
                    <path d="M113.3,105.499 L111,105.499 L111,102.999 L109.4,103.499 L109.4,105.499 L107.5,105.499 L107.5,106.799 L109.4,106.799 L109.4,111.799 C109.4,113.499 110.4,114.299 112.1,114.299 C112.6,114.299 113.1,114.199 113.5,114.099 L113.5,112.699 C113.3,112.799 112.9,112.999 112.4,112.999 C111.7,112.999 111.1,112.499 111.1,111.499 L111.1,106.799 L113.4,106.799 L113.4,105.499 L113.3,105.499 Z" id="Path" fill="#0072CE" fill-rule="nonzero"></path>
                    <path d="M115.4,114.099 L117,114.099 L117,105.499 L115.4,105.499 L115.4,114.099 Z M117.1,101.699 L115.3,101.699 L115.3,103.499 L117.1,103.499 L117.1,101.699 Z" id="Shape" fill="#0072CE"></path>
                    <path d="M119.2,109.799 C119.2,112.298 121,114.298 123.6,114.298 C126.2,114.298 128,112.298 128,109.799 C128,107.199 126.2,105.299 123.6,105.299 C121,105.299 119.2,107.199 119.2,109.799 Z M120.9,109.799 C120.9,108.199 121.9,106.599 123.6,106.599 C125.3,106.599 126.3,108.199 126.3,109.799 C126.3,111.299 125.5,112.998 123.6,112.998 C121.7,112.998 120.9,111.299 120.9,109.799 Z" id="Shape" fill="#0072CE"></path>
                    <path d="M130,114.098 L131.6,114.098 L131.6,110.099 C131.6,107.999 132.4,106.499 134.2,106.499 C135.6,106.599 136,107.599 136,109.599 L136,114.098 L137.6,114.098 L137.6,108.999 C137.6,106.699 136.6,105.299 134.4,105.299 C133.2,105.299 132,105.899 131.6,106.899 L131.6,105.499 L130,105.499 L130,114.098 Z" id="Path" fill="#0072CE" fill-rule="nonzero"></path>
                    <polygon id="Path" fill="#0072CE" fill-rule="nonzero" points="147.3 114.1 149 114.1 149 103.8 152.7 103.8 152.7 102.3 143.6 102.3 143.6 103.8 147.3 103.8"></polygon>
                    <path d="M154.1,114.099 L155.7,114.099 L155.7,110.199 C155.7,107.999 156.6,106.699 158,106.699 C158.3,106.699 158.6,106.699 158.9,106.899 L158.9,105.499 C158.6,105.399 158.3,105.399 157.9,105.399 C157,105.399 156.1,105.999 155.6,106.899 L155.6,105.599 L154.1,105.599 L154.1,114.099 Z" id="Path" fill="#0072CE" fill-rule="nonzero"></path>
                    <path d="M168.2,105.499 L166.6,105.499 L166.6,109.498 C166.6,111.598 165.8,113.098 164,113.098 C162.6,112.998 162.2,111.998 162.2,109.998 L162.2,105.499 L160.6,105.499 L160.6,110.598 C160.6,112.898 161.6,114.298 163.8,114.298 C165,114.298 166.1,113.698 166.6,112.698 L166.6,114.098 L168.1,114.098 L168.1,105.499 L168.2,105.499 Z" id="Path" fill="#0072CE" fill-rule="nonzero"></path>
                    <path d="M170,113.798 C170.7,114.198 171.6,114.298 172.4,114.298 C173.9,114.298 175.4,113.498 175.4,111.598 C175.4,108.799 171.7,109.299 171.7,107.599 C171.7,106.899 172.4,106.599 173.2,106.599 C173.6,106.599 174.5,106.799 174.9,106.999 L175,105.599 C174.4,105.399 173.8,105.299 173,105.299 C171.3,105.299 169.9,106.199 169.9,107.999 C169.9,110.399 173.6,110.299 173.6,111.898 C173.6,112.798 172.7,113.098 172,113.098 C171.5,113.098 170.6,112.898 170,112.498 L170,113.798 Z" id="Path" fill="#0072CE" fill-rule="nonzero"></path>
                    <path d="M181.8,105.499 L179.5,105.499 L179.5,102.999 L177.9,103.499 L177.9,105.499 L176,105.499 L176,106.799 L177.9,106.799 L177.9,111.799 C177.9,113.499 178.9,114.299 180.6,114.299 C181.1,114.299 181.6,114.199 182,114.099 L182,112.699 C181.8,112.799 181.4,112.999 180.9,112.999 C180.2,112.999 179.6,112.499 179.6,111.499 L179.6,106.799 L181.9,106.799 L181.9,105.499 L181.8,105.499 Z" id="Path" fill="#0072CE" fill-rule="nonzero"></path>
                </g>
            </g>
        </g>
    </g>
</svg>