<svg xmlns="http://www.w3.org/2000/svg" width="450" height="96" viewBox="0 0 450 96">
  <defs>
    <style>
      .a, .e {
        fill: #005eb8;
      }

      .a, .b {
        fill-rule: evenodd;
      }

      .b {
        fill: #fff;
      }

      .c {
        isolation: isolate;
      }

      .d {
        fill: #1a1919;
      }
    </style>
  </defs>
  <g>
    <polygon class="a" points="0 44.57 108.96 44.57 108.96 0 0 0 0 44.57"/>
    <polyline class="b" points="10.72 4.28 22.58 4.28 29.83 29.18 29.96 29.18 34.84 4.28 43.8 4.28 36.29 40.15 24.55 40.15 17.17 15.39 17.04 15.39 12.17 40.15 3.21 40.15 10.72 4.28"/>
    <polyline class="b" points="46.77 4.28 56.24 4.28 53.48 18.07 64.67 18.07 67.44 4.28 76.91 4.28 69.54 40.15 60.06 40.15 63.22 24.89 52.03 24.89 48.87 40.15 39.52 40.15 46.77 4.28"/>
    <path class="b" d="M102.48,12.45a18.38,18.38,0,0,0-7.68-1.61c-3.78,0-6.77.54-6.77,3.48,0,5.09,13.53,3.08,13.53,14.06,0,9.9-9,12.44-17,12.44A35.93,35.93,0,0,1,73.71,39l2.21-7.23c1.82,1.2,5.6,2,8.59,2s7.42-.54,7.42-4.28c0-5.76-13.54-3.62-13.54-13.66,0-9.23,7.94-12,15.62-12,4.3,0,8.34.4,10.68,1.6l-2.21,7.1"/>
  </g>
  <g class="c">
    <g class="c">
      <path class="d" d="M6.69,52.64H1.28v-3H15.89v3H10.48v15.9H6.69Z"/>
      <path class="d" d="M18,48.26h3.62V56.5h.06A5.16,5.16,0,0,1,26,54.29c3.29,0,4.73,2.32,4.73,5.46v8.79H27.13V61.1c0-1.7,0-4-2.35-4-2.62,0-3.19,2.84-3.19,4.62v6.82H18Z"/>
      <path class="d" d="M45.66,67.75a9.59,9.59,0,0,1-4.79,1.11c-4.6,0-7.27-2.65-7.27-7.22,0-4,2.13-7.35,6.46-7.35,5.16,0,6.62,3.54,6.62,8.41H37.06a3.64,3.64,0,0,0,4,3.51,9.51,9.51,0,0,0,4.63-1.4Zm-2.44-7.54c-.11-1.76-.92-3.27-2.95-3.27s-3.05,1.4-3.21,3.27Z"/>
      <path class="d" d="M57.17,49.66h4.66L69,63.78h0V49.66h3.62V68.54H68.07L60.85,54.42H60.8V68.54H57.17Z"/>
      <path class="d" d="M87.73,67.75a9.59,9.59,0,0,1-4.79,1.11c-4.59,0-7.27-2.65-7.27-7.22,0-4,2.13-7.35,6.46-7.35,5.17,0,6.63,3.54,6.63,8.41H79.13a3.64,3.64,0,0,0,4,3.51,9.47,9.47,0,0,0,4.63-1.4Zm-2.44-7.54c-.1-1.76-.91-3.27-2.94-3.27s-3.06,1.4-3.22,3.27Z"/>
      <path class="d" d="M90,54.61h3.84L97,64.91h0l2.82-10.3H104l3,10.3h.06L110,54.61h3.46L109.2,68.54h-4.27l-3-10.63h-.06l-3,10.63H94.73Z"/>
      <path class="d" d="M124.66,57.61a5.57,5.57,0,0,0-2.46-.51c-2.24,0-3.67,1.78-3.67,4.41s1.21,4.54,3.75,4.54a7.69,7.69,0,0,0,2.79-.65l.16,3a11.59,11.59,0,0,1-3.62.46c-4.57,0-6.87-3.11-6.87-7.35,0-4,2.38-7.22,6.73-7.22a11.74,11.74,0,0,1,3.52.46Z"/>
      <path class="d" d="M128.26,55.34a12.46,12.46,0,0,1,4.84-1.05c4.24,0,6,1.75,6,5.86v1.79c0,1.41,0,2.46.06,3.49s.08,2,.16,3.11h-3.19a14.87,14.87,0,0,1-.16-2.09h-.06a5,5,0,0,1-4.3,2.41c-2.46,0-4.86-1.49-4.86-4.14a4.1,4.1,0,0,1,2.37-4,11,11,0,0,1,4.68-.81h2c0-2.25-1-3-3.13-3a7.27,7.27,0,0,0-4.3,1.51Zm4.24,10.87A3.11,3.11,0,0,0,135.05,65a4.67,4.67,0,0,0,.75-2.87h-1.56c-1.63,0-4,.27-4,2.41C130.21,65.7,131.21,66.21,132.5,66.21Z"/>
      <path class="d" d="M151,57.53a8.87,8.87,0,0,0-3.25-.59c-1,0-2.13.35-2.13,1.54,0,2.22,6.3.81,6.3,5.84,0,3.24-2.9,4.54-5.85,4.54a16.24,16.24,0,0,1-4.1-.59l.21-3a8,8,0,0,0,3.57.92c.92,0,2.38-.35,2.38-1.7,0-2.73-6.3-.87-6.3-5.9,0-3,2.62-4.32,5.46-4.32a16.89,16.89,0,0,1,3.95.51Z"/>
      <path class="d" d="M155.87,57.26h-2.68V54.61h2.68V51.83l3.62-1.17v4h3.22v2.65h-3.22v6.49c0,1.19.32,2.3,1.7,2.3a3.27,3.27,0,0,0,1.65-.38l.11,2.87a9.78,9.78,0,0,1-2.68.32c-2.84,0-4.4-1.76-4.4-4.51Z"/>
      <path class="d" d="M165.28,48.26h3.62V68.54h-3.62Z"/>
      <path class="d" d="M183.88,67.75a9.59,9.59,0,0,1-4.79,1.11c-4.59,0-7.27-2.65-7.27-7.22,0-4,2.14-7.35,6.46-7.35,5.17,0,6.63,3.54,6.63,8.41h-9.63a3.64,3.64,0,0,0,4,3.51,9.47,9.47,0,0,0,4.62-1.4Zm-2.43-7.54c-.11-1.76-.92-3.27-2.95-3.27s-3.06,1.4-3.22,3.27Z"/>
      <path class="d" d="M208.05,68.54h-3.43v-1.9h-.06A5.76,5.76,0,0,1,200,68.86c-3.3,0-4.74-2.32-4.74-5.46V54.61h3.63v7.44c0,1.7,0,4,2.35,4,2.62,0,3.19-2.84,3.19-4.62V54.61h3.62Z"/>
      <path class="d" d="M211.78,54.61h3.47v2h.05a4.7,4.7,0,0,1,4.32-2.3c4.28,0,5.85,3.4,5.85,7.24s-1.57,7.33-5.93,7.33a4.76,4.76,0,0,1-4.08-1.92h-.05v7.27h-3.63Zm3.65,6.92c0,2,.79,4.52,3.19,4.52s3.06-2.6,3.06-4.52-.65-4.43-3-4.43S215.43,59.59,215.43,61.53Z"/>
      <path class="d" d="M234.69,54.29a7,7,0,0,1,7.3,7.38,7.29,7.29,0,0,1-14.58,0A7,7,0,0,1,234.69,54.29Zm0,11.76c2.78,0,3.51-2.49,3.51-4.81,0-2.14-1.13-4.14-3.51-4.14s-3.49,2-3.49,4.14C231.2,63.53,231.93,66.05,234.69,66.05Z"/>
      <path class="d" d="M244.83,54.61h3.43V56.5h.05a5.22,5.22,0,0,1,4.57-2.21c3.3,0,4.73,2.32,4.73,5.46v8.79H254V61.1c0-1.7,0-4-2.35-4-2.62,0-3.19,2.84-3.19,4.62v6.82h-3.62Z"/>
      <path class="d" d="M272.62,52.64h-5.41v-3h14.61v3h-5.41v15.9h-3.79Z"/>
      <path class="d" d="M286.68,64.78h.06l3.35-10.17h3.68l-5.22,13.82c-1.16,3.08-2,6.11-5.79,6.11a9.41,9.41,0,0,1-2.57-.38l.25-2.68a5.11,5.11,0,0,0,1.86.25,2.27,2.27,0,0,0,2.35-2.49l-5.32-14.63h4Z"/>
      <path class="d" d="M295.93,54.61h3.43V56.5h.06A5.19,5.19,0,0,1,304,54.29c3.3,0,4.73,2.32,4.73,5.46v8.79H305.1V61.1c0-1.7,0-4-2.36-4-2.62,0-3.19,2.84-3.19,4.62v6.82h-3.62Z"/>
      <path class="d" d="M323.62,67.75a9.59,9.59,0,0,1-4.79,1.11c-4.59,0-7.27-2.65-7.27-7.22,0-4,2.13-7.35,6.46-7.35,5.17,0,6.63,3.54,6.63,8.41H315a3.64,3.64,0,0,0,4,3.51,9.47,9.47,0,0,0,4.63-1.4Zm-2.44-7.54c-.1-1.76-.92-3.27-2.94-3.27s-3.06,1.4-3.22,3.27Z"/>
      <path class="d" d="M335.33,49.66h3.78v7.63h7.57V49.66h3.79V68.54h-3.79V60.26h-7.57v8.28h-3.78Z"/>
      <path class="d" d="M360.9,54.29a7,7,0,0,1,7.31,7.38,7.29,7.29,0,0,1-14.58,0A7,7,0,0,1,360.9,54.29Zm0,11.76c2.79,0,3.52-2.49,3.52-4.81,0-2.14-1.14-4.14-3.52-4.14s-3.48,2-3.48,4.14C357.42,63.53,358.15,66.05,360.9,66.05Z"/>
      <path class="d" d="M379.32,57.53a8.87,8.87,0,0,0-3.25-.59c-1,0-2.13.35-2.13,1.54,0,2.22,6.3.81,6.3,5.84,0,3.24-2.9,4.54-5.84,4.54a16.26,16.26,0,0,1-4.11-.59l.21-3a8,8,0,0,0,3.57.92c.92,0,2.38-.35,2.38-1.7,0-2.73-6.3-.87-6.3-5.9,0-3,2.63-4.32,5.46-4.32a16.81,16.81,0,0,1,3.95.51Z"/>
      <path class="d" d="M383.05,54.61h3.46v2h.05a4.72,4.72,0,0,1,4.33-2.3c4.27,0,5.84,3.4,5.84,7.24s-1.57,7.33-5.92,7.33a4.76,4.76,0,0,1-4.08-1.92h-.06v7.27h-3.62Zm3.65,6.92c0,2,.78,4.52,3.19,4.52s3.06-2.6,3.06-4.52-.65-4.43-3-4.43S386.7,59.59,386.7,61.53Z"/>
      <path class="d" d="M399.65,48.61h3.62v3.46h-3.62Zm0,6h3.62V68.54h-3.62Z"/>
      <path class="d" d="M408.28,57.26H405.6V54.61h2.68V51.83l3.62-1.17v4h3.22v2.65H411.9v6.49c0,1.19.32,2.3,1.7,2.3a3.25,3.25,0,0,0,1.65-.38l.11,2.87a9.78,9.78,0,0,1-2.68.32c-2.83,0-4.4-1.76-4.4-4.51Z"/>
      <path class="d" d="M418.23,55.34a12.42,12.42,0,0,1,4.84-1.05c4.24,0,6,1.75,6,5.86v1.79c0,1.41,0,2.46.05,3.49s.09,2,.17,3.11H426.1a16.84,16.84,0,0,1-.17-2.09h-.05a5,5,0,0,1-4.3,2.41c-2.46,0-4.87-1.49-4.87-4.14a4.09,4.09,0,0,1,2.38-4,11,11,0,0,1,4.68-.81h2c0-2.25-1-3-3.14-3a7.24,7.24,0,0,0-4.29,1.51Zm4.24,10.87A3.08,3.08,0,0,0,425,65a4.61,4.61,0,0,0,.76-2.87H424.2c-1.62,0-4,.27-4,2.41C420.17,65.7,421.17,66.21,422.47,66.21Z"/>
      <path class="d" d="M432.72,48.26h3.62V68.54h-3.62Z"/>
      <path class="d" d="M448.43,57.53a8.85,8.85,0,0,0-3.24-.59c-1,0-2.14.35-2.14,1.54,0,2.22,6.3.81,6.3,5.84,0,3.24-2.89,4.54-5.84,4.54a16.26,16.26,0,0,1-4.11-.59l.22-3a7.89,7.89,0,0,0,3.56.92c.92,0,2.38-.35,2.38-1.7,0-2.73-6.3-.87-6.3-5.9,0-3,2.63-4.32,5.47-4.32a16.79,16.79,0,0,1,3.94.51Z"/>
    </g>
  </g>
  <g class="c">
    <g class="c">
      <path class="e" d="M2.43,81.63H5.6l4.91,9.63h0V81.63H13V94.5H9.86L4.94,84.88h0V94.5H2.43Z"/>
      <path class="e" d="M15.87,81.63h2.58v5.2h5.16v-5.2h2.58V94.5H23.61V88.86H18.45V94.5H15.87Z"/>
      <path class="e" d="M36.09,84a6.64,6.64,0,0,0-2.61-.55,1.79,1.79,0,0,0-2,1.79c0,2.23,5.64,1.29,5.64,5.6,0,2.82-2.23,3.89-4.83,3.89a11.12,11.12,0,0,1-3.3-.5l.24-2.32a6.22,6.22,0,0,0,2.91.79c1,0,2.29-.49,2.29-1.65,0-2.46-5.64-1.44-5.64-5.7,0-2.88,2.23-3.93,4.5-3.93a9.78,9.78,0,0,1,3.07.46Z"/>
      <path class="e" d="M44.56,81.63h7.15v2H47.14v3.17h4.35v2H47.14V94.5H44.56Z"/>
      <path class="e" d="M57.9,84.79a4.75,4.75,0,0,1,5,5,5,5,0,0,1-9.93,0A4.74,4.74,0,0,1,57.9,84.79Zm0,8c1.9,0,2.4-1.69,2.4-3.28s-.77-2.82-2.4-2.82-2.37,1.4-2.37,2.82C55.53,91.09,56,92.8,57.9,92.8Z"/>
      <path class="e" d="M73.54,94.5H71.2V93.21h0A4,4,0,0,1,68,94.72c-2.24,0-3.22-1.58-3.22-3.72V85h2.47v5.07c0,1.16,0,2.72,1.6,2.72,1.79,0,2.18-1.93,2.18-3.15V85h2.47Z"/>
      <path class="e" d="M76.08,85h2.34V86.3h0a3.54,3.54,0,0,1,3.12-1.51c2.24,0,3.22,1.58,3.22,3.72v6H82.33V89.43c0-1.16,0-2.73-1.6-2.73-1.79,0-2.18,1.94-2.18,3.16V94.5H76.08Z"/>
      <path class="e" d="M93.67,93.43h0a3.52,3.52,0,0,1-2.91,1.29c-2.91,0-4-2.39-4-5s1.07-4.94,4-4.94a3.38,3.38,0,0,1,2.84,1.32h0V80.68h2.47V94.5h-2.4ZM91.4,92.8c1.64,0,2.18-1.73,2.18-3.07s-.63-3-2.21-3-2.05,1.75-2.05,3S89.78,92.8,91.4,92.8Z"/>
      <path class="e" d="M99,85.5a8.45,8.45,0,0,1,3.29-.71c2.9,0,4.1,1.19,4.1,4V90c0,1,0,1.68,0,2.38s.06,1.38.11,2.12H104.4a12.31,12.31,0,0,1-.11-1.42h0a3.38,3.38,0,0,1-2.93,1.64c-1.68,0-3.32-1-3.32-2.82a2.8,2.8,0,0,1,1.62-2.71,7.57,7.57,0,0,1,3.19-.55h1.37c0-1.53-.68-2-2.14-2a5,5,0,0,0-2.93,1Zm2.89,7.42a2.09,2.09,0,0,0,1.73-.85,3.14,3.14,0,0,0,.52-2h-1.07c-1.11,0-2.75.19-2.75,1.64C100.36,92.56,101,92.92,101.93,92.92Z"/>
      <path class="e" d="M109.67,86.81h-1.82V85h1.82v-1.9l2.47-.79V85h2.2v1.8h-2.2v4.43c0,.81.22,1.56,1.16,1.56a2.28,2.28,0,0,0,1.13-.25l.07,2a6.38,6.38,0,0,1-1.82.22,2.79,2.79,0,0,1-3-3.08Z"/>
      <path class="e" d="M116.09,80.92h2.47v2.35h-2.47Zm0,4.09h2.47V94.5h-2.47Z"/>
      <path class="e" d="M125.51,84.79a4.75,4.75,0,0,1,5,5,5,5,0,0,1-9.94,0A4.75,4.75,0,0,1,125.51,84.79Zm0,8c1.9,0,2.39-1.69,2.39-3.28s-.77-2.82-2.39-2.82-2.38,1.4-2.38,2.82C123.13,91.09,123.63,92.8,125.51,92.8Z"/>
      <path class="e" d="M132.42,85h2.34V86.3h0a3.53,3.53,0,0,1,3.12-1.51c2.24,0,3.22,1.58,3.22,3.72v6h-2.47V89.43c0-1.16,0-2.73-1.6-2.73-1.79,0-2.18,1.94-2.18,3.16V94.5h-2.47Z"/>
      <path class="e" d="M151.37,83.66h-3.68v-2h9.95v2H154V94.5h-2.59Z"/>
      <path class="e" d="M157.42,85h2.2v2.15h0a2.91,2.91,0,0,1,2.6-2.37,2.87,2.87,0,0,1,.76.07v2.49a2.53,2.53,0,0,0-1.11-.2c-2,0-2,2.5-2,3.87V94.5h-2.47Z"/>
      <path class="e" d="M173.26,94.5h-2.34V93.21h0a4,4,0,0,1-3.12,1.51c-2.25,0-3.22-1.58-3.22-3.72V85H167v5.07c0,1.16,0,2.72,1.6,2.72,1.79,0,2.18-1.93,2.18-3.15V85h2.47Z"/>
      <path class="e" d="M181.44,87a6,6,0,0,0-2.21-.41c-.66,0-1.46.24-1.46,1,0,1.51,4.3.56,4.3,4,0,2.22-2,3.1-4,3.1a11,11,0,0,1-2.8-.4l.14-2a5.56,5.56,0,0,0,2.44.63c.62,0,1.62-.25,1.62-1.17,0-1.86-4.3-.59-4.3-4,0-2,1.79-2.95,3.73-2.95a11.21,11.21,0,0,1,2.69.35Z"/>
      <path class="e" d="M184.8,86.81H183V85h1.83v-1.9l2.47-.79V85h2.19v1.8h-2.19v4.43c0,.81.22,1.56,1.16,1.56a2.24,2.24,0,0,0,1.12-.25l.08,2a6.45,6.45,0,0,1-1.83.22,2.79,2.79,0,0,1-3-3.08Z"/>
    </g>
  </g>
</svg>
